<svg width="1212" height="719" viewBox="0 0 1212 719" fill="none" xmlns="http://www.w3.org/2000/svg">
<path d="M399 546C399 639.314 322.91 715 229 715C135.09 715 59 639.314 59 546C59 452.686 135.09 377 229 377C322.91 377 399 452.686 399 546Z" stroke="#017A28" stroke-width="8"/>
<path d="M465 523C465 616.91 389.314 693 296 693C202.686 693 127 616.91 127 523C127 429.09 202.686 353 296 353C389.314 353 465 429.09 465 523Z" stroke="#017A28" stroke-width="8"/>
<circle cx="552.5" cy="432.5" r="167.5" stroke="#017A28" stroke-width="8"/>
<path d="M1146 280C1146 373.314 1069.91 449 976 449C882.09 449 806 373.314 806 280C806 186.686 882.09 111 976 111C1069.91 111 1146 186.686 1146 280Z" stroke="#017A28" stroke-width="8"/>
<path d="M404.416 493.154L559.217 275.501L676.996 536.99L404.416 493.154Z" stroke="#017A28" stroke-width="8"/>
<path d="M826.956 336.794L980.765 117.638L1092.34 387.8L826.956 336.794Z" stroke="#017A28" stroke-width="8"/>
<path d="M685.139 538.473L565.383 269.751L979.785 114.108L1093.71 390.792L685.139 538.473Z" stroke="#017A28" stroke-width="8"/>
<path d="M1010 279.5C1010 306.128 990.598 327 967.5 327C944.402 327 925 306.128 925 279.5C925 252.872 944.402 232 967.5 232C990.598 232 1010 252.872 1010 279.5Z" stroke="#017A28" stroke-width="8"/>
<line x1="290.615" y1="704.088" x2="1037.25" y2="437.909" stroke="#017A28" stroke-width="8"/>
<path d="M181 383.83L920.774 120.115" stroke="#017A28" stroke-width="8"/>
<line x1="392.682" y1="496.521" x2="824.595" y2="335.809" stroke="#017A28" stroke-width="8"/>
<path d="M132.416 121.689C136.448 121.689 139.776 122.873 142.4 125.241C145.088 127.545 146.432 130.681 146.432 134.649C146.432 137.721 145.6 140.409 143.936 142.713C142.272 144.953 140.064 146.745 137.312 148.089C134.88 149.241 130.144 150.905 123.104 153.081C126.688 154.617 129.312 156.825 130.976 159.705C132.704 162.521 133.568 165.753 133.568 169.401C133.568 173.369 132.384 177.113 130.016 180.633C127.648 184.153 124.256 187.001 119.84 189.177C115.424 191.289 110.24 192.345 104.288 192.345C98.7198 192.345 93.5358 191.385 88.7358 189.465C83.9998 187.481 80.2238 184.697 77.4078 181.113C74.5918 177.465 73.1838 173.241 73.1838 168.441C73.1838 164.217 74.2078 160.665 76.2558 157.785C78.3678 154.841 80.7678 152.633 83.4558 151.161C86.1438 149.625 88.6398 148.569 90.9438 147.993C87.8078 146.649 85.4078 144.857 83.7438 142.617C82.0798 140.377 81.2478 138.041 81.2478 135.609C81.2478 133.497 81.8558 131.545 83.0718 129.753C84.3518 127.897 86.2078 126.425 88.6398 125.337C91.1358 124.185 94.0798 123.609 97.4718 123.609C101.76 123.609 105.088 124.569 107.456 126.489C108.608 127.449 109.472 128.537 110.048 129.753C110.688 130.905 111.008 132.025 111.008 133.113C111.008 134.649 110.464 135.897 109.376 136.857C108.288 137.753 107.04 138.201 105.632 138.201C104.288 138.201 103.104 137.785 102.08 136.953C101.12 136.057 100.64 134.873 100.64 133.401C100.64 131.993 101.12 130.809 102.08 129.849C103.04 128.825 104.256 128.249 105.728 128.121C105.408 127.289 104.576 126.585 103.232 126.009C101.952 125.369 100.352 125.049 98.4318 125.049C95.1038 125.049 92.4158 126.073 90.3678 128.121C88.3198 130.105 87.2958 132.889 87.2958 136.473C87.2958 140.761 88.9278 144.409 92.1918 147.417C94.4318 147.033 96.4158 146.841 98.1438 146.841C99.2958 146.841 100.224 147.033 100.928 147.417C101.632 147.801 101.984 148.345 101.984 149.049C101.984 149.625 101.728 150.073 101.216 150.393C100.768 150.713 100.128 150.873 99.2958 150.873C98.2718 150.873 97.2158 150.681 96.1278 150.297C95.0398 149.913 93.7598 149.401 92.2878 148.761C83.9678 151.257 79.8078 156.505 79.8078 164.505C79.8078 168.793 80.9278 172.505 83.1678 175.641C85.4078 178.777 88.4798 181.177 92.3838 182.841C96.2878 184.441 100.672 185.241 105.536 185.241C110.08 185.241 114.272 184.537 118.112 183.129C122.016 181.657 125.088 179.609 127.328 176.985C129.632 174.297 130.784 171.193 130.784 167.673C130.784 165.113 130.112 162.521 128.768 159.897C127.424 157.273 124.864 155.225 121.088 153.753C116.096 155.289 112.416 156.505 110.048 157.401C107.36 158.425 105.28 159.609 103.808 160.953C102.336 162.233 101.6 163.833 101.6 165.753C101.6 168.057 102.528 169.913 104.384 171.321C106.304 172.729 108.32 173.433 110.432 173.433C111.52 173.433 112.704 173.241 113.984 172.857C115.264 172.473 116 171.961 116.192 171.321C114.976 171.065 113.92 170.553 113.024 169.785C112.128 169.017 111.68 167.897 111.68 166.425C111.68 164.889 112.16 163.673 113.12 162.777C114.144 161.881 115.424 161.433 116.96 161.433C118.496 161.433 119.712 161.913 120.608 162.873C121.568 163.833 122.048 165.081 122.048 166.617C122.048 169.177 120.864 171.193 118.496 172.665C116.128 174.137 113.504 174.873 110.624 174.873C107.488 174.873 104.704 173.945 102.272 172.089C99.9038 170.169 98.7198 167.353 98.7198 163.641C98.7198 160.377 99.8078 157.625 101.984 155.385C104.224 153.081 107.552 151.161 111.968 149.625L118.784 147.609C122.624 146.521 125.824 145.561 128.384 144.729C130.944 143.897 133.28 143.001 135.392 142.041C138.464 140.633 140.608 139.193 141.824 137.721C143.04 136.249 143.648 134.617 143.648 132.825C143.648 130.137 142.528 127.865 140.288 126.009C138.112 124.089 135.52 123.129 132.512 123.129C130.912 123.129 129.952 123.417 129.632 123.993C130.464 124.377 131.104 125.017 131.552 125.913C132.064 126.745 132.32 127.577 132.32 128.409C132.32 129.753 131.776 130.873 130.688 131.769C129.664 132.665 128.416 133.113 126.944 133.113C125.6 133.113 124.416 132.697 123.392 131.865C122.368 131.033 121.856 129.849 121.856 128.313C121.856 126.009 122.912 124.345 125.024 123.321C127.2 122.233 129.664 121.689 132.416 121.689Z" fill="black"/>
<path d="M283.772 588.212C289.797 587.687 294.924 589.024 299.154 592.221C303.47 595.314 305.886 599.826 306.403 605.755C306.802 610.346 305.909 614.471 303.722 618.13C301.526 621.694 298.46 624.659 294.522 627.026C291.038 629.063 284.177 632.166 273.94 636.334C279.496 638.163 283.704 641.121 286.565 645.208C289.514 649.191 291.225 653.909 291.7 659.36C292.216 665.29 290.934 671.039 287.853 676.607C284.772 682.175 280.074 686.872 273.758 690.698C267.433 694.429 259.824 696.681 250.93 697.455C242.609 698.179 234.738 697.419 227.315 695.174C219.98 692.826 213.975 689.157 209.301 684.167C204.618 679.082 201.964 672.953 201.34 665.78C200.791 659.468 201.859 654.027 204.545 649.457C207.318 644.783 210.617 641.171 214.442 638.622C218.259 635.977 221.852 634.074 225.22 632.914C220.359 631.313 216.539 628.947 213.761 625.817C210.983 622.686 209.436 619.303 209.12 615.669C208.845 612.513 209.5 609.517 211.084 606.681C212.755 603.741 215.337 601.3 218.83 599.357C222.41 597.311 226.734 596.068 231.803 595.626C238.211 595.069 243.309 596.07 247.097 598.631C248.944 599.916 250.376 601.429 251.395 603.172C252.502 604.81 253.125 606.442 253.267 608.068C253.467 610.363 252.816 612.299 251.315 613.875C249.806 615.355 247.999 616.187 245.895 616.37C243.887 616.545 242.063 616.078 240.425 614.967C238.874 613.753 238.002 612.047 237.811 609.847C237.628 607.743 238.191 605.911 239.501 604.352C240.802 602.696 242.544 601.678 244.727 601.295C244.141 600.093 242.806 599.149 240.723 598.463C238.727 597.674 236.294 597.404 233.425 597.653C228.452 598.086 224.568 599.966 221.774 603.293C218.972 606.524 217.804 610.817 218.27 616.173C218.828 622.581 221.741 627.82 227.01 631.891C230.307 631.025 233.247 630.48 235.829 630.256C237.551 630.106 238.963 630.272 240.065 630.754C241.167 631.236 241.763 632.004 241.855 633.056C241.93 633.916 241.606 634.619 240.882 635.164C240.254 635.7 239.319 636.023 238.075 636.131C236.545 636.264 234.942 636.115 233.266 635.682C231.59 635.25 229.611 634.651 227.328 633.886C215.22 638.699 209.686 647.082 210.727 659.037C211.284 665.445 213.441 670.846 217.196 675.241C220.952 679.636 225.854 682.823 231.905 684.801C237.947 686.685 244.602 687.31 251.871 686.677C258.661 686.086 264.834 684.489 270.389 681.885C276.031 679.178 280.356 675.718 283.362 671.505C286.455 667.188 287.773 662.4 287.315 657.14C286.982 653.315 285.64 649.529 283.291 645.782C280.941 642.036 276.849 639.308 271.015 637.6C263.755 640.545 258.414 642.84 254.992 644.487C251.108 646.367 248.154 648.407 246.129 650.607C244.096 652.711 243.204 655.198 243.454 658.067C243.754 661.51 245.382 664.163 248.338 666.026C251.391 667.88 254.495 668.67 257.651 668.395C259.277 668.253 261.021 667.812 262.884 667.072C264.747 666.332 265.78 665.471 265.984 664.49C264.133 664.265 262.489 663.637 261.05 662.606C259.611 661.575 258.796 659.96 258.604 657.76C258.405 655.465 258.964 653.585 260.282 652.121C261.695 650.649 263.55 649.813 265.845 649.614C268.14 649.414 270.02 649.973 271.484 651.291C273.043 652.601 273.923 654.403 274.123 656.698C274.456 660.524 272.949 663.691 269.602 666.198C266.254 668.706 262.429 670.147 258.125 670.522C253.439 670.93 249.158 669.905 245.282 667.448C241.494 664.887 239.358 660.833 238.875 655.286C238.451 650.408 239.719 646.154 242.679 642.524C245.727 638.789 250.45 635.487 256.849 632.618L266.773 628.718C272.369 626.593 277.026 624.742 280.744 623.166C284.461 621.59 287.835 619.947 290.866 618.237C295.274 615.734 298.291 613.303 299.916 610.945C301.542 608.587 302.238 606.07 302.005 603.392C301.655 599.375 299.686 596.125 296.097 593.643C292.596 591.057 288.598 589.96 284.103 590.351C281.712 590.559 280.315 591.114 279.911 592.017C281.205 592.482 282.244 593.356 283.03 594.636C283.904 595.813 284.394 597.023 284.503 598.266C284.677 600.275 284.01 602.019 282.501 603.499C281.087 604.972 279.281 605.803 277.081 605.995C275.072 606.17 273.249 605.702 271.611 604.592C269.972 603.482 269.053 601.779 268.853 599.484C268.554 596.041 269.915 593.417 272.938 591.612C276.048 589.703 279.659 588.57 283.772 588.212Z" fill="black"/>
<path d="M206.459 568.841L133.183 653.114L160.975 658.036C166.836 659.074 171.421 659.057 174.73 657.986C178.151 656.837 180.897 654.545 182.968 651.109C185.039 647.674 187.025 642.517 188.925 635.639L192.186 636.217C191.384 639.097 190.556 642.948 189.702 647.768C188.747 653.157 188.007 659.265 187.48 666.094C180.535 664.571 168.791 662.345 152.249 659.415C136.084 656.552 124.385 654.626 117.15 653.638L117.653 650.802L191.354 566.605L163.704 561.708C157.843 560.67 153.203 560.725 149.782 561.874C146.472 562.946 143.782 565.199 141.711 568.634C139.64 572.07 137.655 577.227 135.754 584.104L132.493 583.527C133.312 580.552 134.14 576.702 134.977 571.975C135.932 566.587 136.672 560.479 137.199 553.65C144.144 555.172 155.888 557.399 172.43 560.328C188.5 563.175 200.011 565.067 206.962 566.006L206.459 568.841ZM203.294 535.523C196.875 536.531 191.002 538.318 185.673 540.884C180.455 543.372 176.385 546.258 173.463 549.543L170.911 549.091C169.295 545.003 166.417 540.886 162.277 536.74C158.247 532.517 153.392 528.829 147.711 525.678L148.771 523.819C154.225 526.052 159.535 528.552 164.699 531.32C169.958 534.103 174.036 536.678 176.932 539.043C179.896 537.716 183.759 536.548 188.52 535.539C193.376 534.546 198.181 533.837 202.936 533.412L203.294 535.523Z" fill="black"/>
<path d="M492.236 42.1082L455.759 147.657L483.376 141.838C489.2 140.611 493.447 138.882 496.117 136.651C498.86 134.307 500.551 131.155 501.188 127.195C501.825 123.234 501.74 117.709 500.933 110.619L504.173 109.936C504.505 112.908 505.176 116.789 506.185 121.58C507.314 126.934 508.909 132.877 510.972 139.408C503.961 140.591 492.237 142.914 475.798 146.378C459.734 149.763 448.163 152.348 441.083 154.134L440.489 151.316L477.389 45.6781L449.912 51.4678C444.088 52.695 439.804 54.4807 437.061 56.8247C434.391 59.0551 432.738 62.1505 432.101 66.1109C431.464 70.0714 431.549 75.5966 432.356 82.6865L429.115 83.3694C428.763 80.304 428.093 76.4229 427.103 71.726C425.975 66.3716 424.379 60.4289 422.316 53.8979C429.327 52.715 441.052 50.3915 457.491 46.9276C473.46 43.5627 484.844 41.0168 491.642 39.29L492.236 42.1082ZM476.849 12.3861C471.272 15.7195 466.492 19.5719 462.508 23.9434C458.598 28.2011 455.901 32.3992 454.419 36.5378L451.882 37.0723C448.856 33.8838 444.648 31.1405 439.258 28.8423C433.943 26.4305 428.061 24.8247 421.614 24.0249L421.903 21.9037C427.796 21.9373 433.655 22.2724 439.48 22.9092C445.398 23.5262 450.142 24.3906 453.712 25.5024C455.966 23.1633 459.113 20.6363 463.152 17.9211C467.285 15.1862 471.477 12.7331 475.729 10.5618L476.849 12.3861Z" fill="black"/>
<path d="M1211.1 66.7865L1166.91 126.709L1185.65 128.492C1189.6 128.868 1192.64 128.612 1194.78 127.723C1197 126.776 1198.7 125.106 1199.89 122.712C1201.08 120.318 1202.13 116.785 1203.02 112.113L1205.22 112.322C1204.84 114.279 1204.5 116.882 1204.19 120.132C1203.84 123.763 1203.67 127.862 1203.69 132.428C1198.99 131.788 1191.07 130.937 1179.92 129.876C1169.03 128.838 1161.15 128.185 1156.29 127.915L1156.47 126.004L1200.94 66.1087L1182.3 64.3344C1178.35 63.9583 1175.27 64.2436 1173.06 65.1902C1170.92 66.0792 1169.25 67.7206 1168.06 70.1144C1166.87 72.5081 1165.82 76.0411 1164.93 80.7133L1162.73 80.5041C1163.12 78.4835 1163.46 75.8804 1163.76 72.6948C1164.11 69.0632 1164.27 64.9644 1164.26 60.3984C1168.96 61.0384 1176.88 61.8892 1188.03 62.9508C1198.86 63.982 1206.61 64.6234 1211.28 64.8751L1211.1 66.7865ZM1207.21 44.8151C1203 45.8286 1199.19 47.3305 1195.79 49.3208C1192.45 51.2535 1189.9 53.3894 1188.14 55.7286L1186.42 55.5648C1185.12 52.9345 1182.99 50.3527 1180.02 47.8195C1177.12 45.2286 1173.69 43.0382 1169.75 41.2483L1170.35 39.9559C1174.1 41.1481 1177.76 42.5254 1181.34 44.0877C1184.98 45.6562 1187.83 47.1487 1189.88 48.5655C1191.78 47.5248 1194.28 46.5418 1197.39 45.6164C1200.57 44.697 1203.72 43.9688 1206.86 43.4317L1207.21 44.8151Z" fill="black"/>
<path d="M321.766 628.458C324.056 628.199 326.13 628.319 327.99 628.818C329.85 629.316 331.374 629.981 332.563 630.813C333.32 631.242 333.921 631.432 334.366 631.382C335.511 631.252 336.053 629.774 335.991 626.947L338.185 626.699C338.283 629.844 338.766 635.264 339.636 642.959L337.442 643.207C336.268 639.089 334.509 635.777 332.165 633.273C329.884 630.761 326.773 629.728 322.83 630.174C320.54 630.432 318.74 631.312 317.428 632.813C316.109 634.25 315.579 636.113 315.838 638.403C316.089 640.629 317.064 642.418 318.763 643.772C320.455 645.062 323.104 646.566 326.712 648.284C327.32 648.537 328.24 648.981 329.471 649.615C332.612 651.192 335.156 652.611 337.102 653.873C339.047 655.134 340.669 656.658 341.966 658.443C343.326 660.222 344.146 662.351 344.427 664.831C344.901 669.029 343.681 672.484 340.767 675.196C337.917 677.901 334.203 679.512 329.624 680.03C326.762 680.353 324.2 680.192 321.937 679.546C320.459 679.005 319.058 678.294 317.735 677.413C317.451 677.187 317.151 677.092 316.833 677.128C316.388 677.178 316.01 677.543 315.701 678.222C315.454 678.894 315.301 679.813 315.239 680.979L313.045 681.227C312.89 677.574 312.298 671.2 311.271 662.106L313.465 661.858C314.84 667.757 316.618 672.096 318.801 674.877C320.975 677.594 324.289 678.701 328.74 678.198C330.966 677.946 332.855 676.992 334.407 675.335C335.958 673.678 336.558 671.292 336.206 668.176C335.926 665.696 334.83 663.694 332.919 662.171C331.071 660.641 328.103 658.883 324.014 656.898C320.675 655.278 318.076 653.93 316.215 652.852C314.418 651.767 312.842 650.367 311.489 648.652C310.136 646.937 309.319 644.84 309.039 642.359C308.586 638.353 309.577 635.149 312.011 632.749C314.444 630.348 317.696 628.918 321.766 628.458ZM336.813 601.735C333.389 603.926 330.415 606.677 327.891 609.99C325.424 613.231 323.705 616.549 322.736 619.943L321.019 620.137C319.317 617.045 316.87 614.198 313.678 611.596C310.542 608.923 307.061 606.901 303.234 605.53L303.847 604.109C307.417 604.929 310.921 606.014 314.359 607.365C317.86 608.708 320.693 610.127 322.858 611.621C324.254 609.724 326.127 607.774 328.477 605.769C330.89 603.757 333.364 601.996 335.899 600.486L336.813 601.735Z" fill="black"/>
<path d="M119.784 550.217C124.072 550.217 127.784 551.241 130.92 553.289C133.928 555.273 135.432 557.737 135.432 560.681C135.432 562.345 134.952 563.657 133.992 564.617C133.032 565.577 131.816 566.057 130.344 566.057C128.872 566.057 127.624 565.641 126.6 564.809C125.576 563.913 125.064 562.729 125.064 561.257C125.064 559.913 125.448 558.793 126.216 557.897C126.984 556.937 127.944 556.297 129.096 555.977C128.456 554.825 127.304 553.865 125.64 553.097C124.04 552.329 122.312 551.945 120.456 551.945C118.088 551.945 115.88 552.713 113.832 554.249C111.784 555.721 110.088 558.217 108.744 561.737C107.4 565.193 106.728 569.769 106.728 575.465C106.728 583.401 108.008 589.193 110.568 592.841C113.128 596.425 116.456 598.217 120.552 598.217C123.304 598.217 125.896 597.417 128.328 595.817C130.824 594.217 132.872 591.721 134.472 588.329L136.296 589.001C135.208 592.649 133.16 595.785 130.152 598.409C127.208 601.033 123.368 602.345 118.632 602.345C114.664 602.345 111.048 601.321 107.784 599.273C104.584 597.225 102.056 594.281 100.2 590.441C98.3438 586.537 97.4158 582.025 97.4158 576.905C97.4158 571.721 98.3438 567.113 100.2 563.081C102.12 559.049 104.776 555.913 108.168 553.673C111.56 551.369 115.432 550.217 119.784 550.217ZM128.52 522.953C129.416 523.721 129.864 524.617 129.864 525.641C129.864 526.601 129.416 527.689 128.52 528.905C127.24 530.505 125.416 532.265 123.048 534.185C122.6 534.569 121.416 535.657 119.496 537.449C117.64 539.177 115.592 541.193 113.352 543.497L112.296 542.633C114.664 538.857 116.872 534.985 118.92 531.017C120.392 528.073 121.672 525.865 122.76 524.393C123.784 522.985 125 522.281 126.408 522.281C127.304 522.281 128.008 522.505 128.52 522.953Z" fill="black"/>
<path d="M1163.09 467.117C1167.25 468.155 1170.6 470.047 1173.15 472.793C1175.59 475.446 1176.45 478.2 1175.74 481.057C1175.33 482.671 1174.55 483.828 1173.39 484.527C1172.22 485.226 1170.93 485.398 1169.5 485.042C1168.07 484.685 1166.96 483.98 1166.17 482.925C1165.39 481.808 1165.18 480.535 1165.54 479.107C1165.86 477.802 1166.51 476.809 1167.47 476.125C1168.45 475.38 1169.53 474.991 1170.73 474.959C1170.38 473.687 1169.5 472.476 1168.07 471.328C1166.7 470.196 1165.12 469.405 1163.32 468.956C1161.02 468.383 1158.69 468.594 1156.33 469.589C1153.99 470.521 1151.74 472.533 1149.59 475.623C1147.45 478.651 1145.69 482.928 1144.31 488.455C1142.39 496.155 1142.23 502.084 1143.83 506.244C1145.44 510.341 1148.24 512.885 1152.21 513.876C1154.88 514.542 1157.59 514.393 1160.34 513.429C1163.15 512.481 1165.74 510.555 1168.11 507.651L1169.72 508.744C1167.78 512.02 1165.04 514.567 1161.48 516.385C1157.99 518.219 1153.95 518.563 1149.35 517.417C1145.5 516.456 1142.24 514.588 1139.57 511.811C1136.96 509.049 1135.22 505.581 1134.35 501.406C1133.49 497.169 1133.68 492.566 1134.92 487.598C1136.18 482.569 1138.19 478.322 1140.97 474.859C1143.81 471.412 1147.15 469.012 1150.98 467.659C1154.83 466.244 1158.86 466.064 1163.09 467.117ZM1178.16 442.777C1178.84 443.74 1179.06 444.717 1178.81 445.711C1178.58 446.642 1177.88 447.59 1176.72 448.553C1175.09 449.795 1172.89 451.062 1170.13 452.351C1169.6 452.616 1168.19 453.385 1165.9 454.659C1163.68 455.886 1161.2 457.347 1158.47 459.04L1157.66 457.946C1160.87 454.856 1163.95 451.633 1166.89 448.279C1169.03 445.778 1170.81 443.946 1172.22 442.781C1173.56 441.662 1174.91 441.274 1176.27 441.614C1177.14 441.831 1177.77 442.219 1178.16 442.777Z" fill="black"/>
<path d="M64.8048 360.727C65.9757 364.182 67.5024 367.99 69.3851 372.15C65.2017 373.365 58.2306 375.626 48.4717 378.933C36.8337 382.876 28.0755 385.946 22.1969 388.141L21.5807 386.322C23.7217 385.461 25.2155 384.685 26.0621 383.993C26.9693 383.28 27.4302 382.346 27.4447 381.193C27.4591 380.039 27.0761 378.311 26.2956 376.007L11.0134 330.91C10.2328 328.607 9.48614 327.002 8.77327 326.094C8.06039 325.187 7.12711 324.726 5.97343 324.712C4.88035 324.677 3.22222 324.968 0.999029 325.587L0.382812 323.768C6.38463 321.937 15.2045 319.05 26.8424 315.106C35.7527 312.086 42.0561 309.849 45.7526 308.394C46.6839 312.538 47.6837 316.186 48.7518 319.338C49.5529 321.702 50.2806 323.55 50.9348 324.883L48.8436 325.591C47.0842 321.795 45.5527 319.071 44.2492 317.417C42.9252 315.704 41.3314 314.69 39.4678 314.375C37.5837 314 35.0354 314.357 31.8229 315.445L24.2764 318.003C22.0943 318.742 20.5496 319.468 19.6424 320.181C18.7753 320.813 18.3345 321.706 18.32 322.859C18.3055 324.013 18.6885 325.741 19.4691 328.045L26.7404 349.502L32.7412 347.469C34.8627 346.75 36.335 345.71 37.158 344.35C37.9605 342.929 38.3176 341.491 38.2294 340.034C38.1813 338.496 37.9293 336.656 37.4734 334.513L37.1299 332.602L39.2211 331.893C39.902 334.5 40.7764 337.38 41.8446 340.532L43.3235 344.896C44.371 347.988 46.0113 352.23 48.2441 357.622L46.153 358.331C45.9486 357.927 45.2737 356.534 44.1285 354.152C42.9627 351.708 41.4671 350.087 39.6416 349.286C37.8768 348.465 35.782 348.465 33.3575 349.287L27.3567 351.321L34.7513 373.142C35.5318 375.445 36.2785 377.05 36.9914 377.958C37.7043 378.865 38.6072 379.336 39.7003 379.371C40.8335 379.325 42.4911 378.932 44.6732 378.193L51.3105 375.943C55.0685 374.67 57.7531 373.22 59.3641 371.592C61.0152 369.884 61.9256 367.785 62.0953 365.295C62.2445 362.744 61.8021 359.245 60.768 354.797L62.8592 354.089C63.232 355.787 63.8805 358 64.8048 360.727ZM18.7957 296.445C21.0515 298.316 24.0342 299.839 27.7438 301.015C31.4934 302.11 35.5338 302.666 39.865 302.685L39.8418 304.112C35.9379 304.557 32.0027 304.809 28.0362 304.869C24.1303 304.909 20.9517 304.702 18.5006 304.249C17.1937 305.976 15.2806 307.908 12.7614 310.045C10.3028 312.162 7.75225 314.108 5.1098 315.882L4.22384 314.763C7.65126 312.115 10.4906 309.227 12.7417 306.099C15.033 302.89 16.5054 299.857 17.1591 297L18.7957 296.445Z" fill="black"/>
<path d="M802.165 83.5819C802.787 87.791 804.489 90.2757 807.27 91.0359L806.846 92.9086C804.392 92.1566 801.073 91.3075 796.891 90.3615C791.522 89.1472 787.506 88.3371 784.842 87.9314L785.266 86.0587C787.666 86.4704 789.415 86.5707 790.513 86.3597C791.687 86.1003 792.415 85.3464 792.697 84.098C792.937 83.0368 792.895 81.4851 792.569 79.443L790.331 62.795L767.672 57.6694L761.587 66.7263C759.577 69.8148 758.373 72.2329 757.978 73.9808C757.54 75.9159 757.878 77.4686 758.991 78.6391C760.167 79.8236 762.121 80.7578 764.853 81.4415L764.43 83.3142C760.914 82.3221 757.346 81.4165 753.725 80.5976C750.916 79.9622 748.554 79.5263 746.639 79.29L747.063 77.4173C750.353 77.3742 753.433 75.2166 756.303 70.9443L791.142 19.1791L792.64 19.5179L802.165 83.5819ZM790.006 60.7528L785.851 30.384L768.844 55.9662L790.006 60.7528ZM796.939 0.510143C797.887 3.28352 799.636 6.13976 802.186 9.07886C804.813 11.9697 807.969 14.5535 811.653 16.8305L810.889 18.0355C807.327 16.3768 803.839 14.5379 800.424 12.5188C797.072 10.5138 794.468 8.67826 792.614 7.01215C790.598 7.80283 787.958 8.45231 784.693 8.9606C781.491 9.483 778.3 9.81107 775.12 9.94482L774.949 8.52803C779.254 8.0584 783.184 7.07712 786.737 5.58419C790.366 4.04296 793.205 2.22453 795.254 0.128906L796.939 0.510143Z" fill="black"/>
<path d="M301.563 262.746C299.965 266.045 297.559 268.754 294.345 270.871C291.141 272.925 287.314 273.672 282.865 273.114L280.189 288.921L278.106 288.568L280.783 272.761C277.103 271.878 273.919 270.171 271.232 267.639C268.619 265.054 266.744 261.751 265.608 257.729C264.534 253.717 264.414 249.25 265.248 244.328C266.06 239.533 267.607 235.381 269.888 231.872C272.244 228.312 275.102 225.615 278.463 223.782C281.824 221.95 285.493 221.175 289.47 221.459L292.354 204.422L294.437 204.774L291.568 221.717L291.757 221.749C295.985 222.465 299.474 224.095 302.224 226.637C304.859 229.096 305.93 231.776 305.439 234.679C305.161 236.319 304.469 237.533 303.362 238.319C302.255 239.105 300.976 239.376 299.525 239.13C298.073 238.884 296.912 238.266 296.042 237.274C295.181 236.22 294.874 234.967 295.12 233.516C295.344 232.191 295.91 231.151 296.817 230.395C297.734 229.577 298.788 229.106 299.977 228.983C299.538 227.74 298.563 226.602 297.05 225.567C295.601 224.542 293.961 223.875 292.131 223.565C289.797 223.17 287.491 223.558 285.216 224.731C282.951 225.84 280.862 228.018 278.949 231.264C277.047 234.448 275.62 238.847 274.669 244.463C273.345 252.288 273.64 258.212 275.555 262.236C277.48 266.198 280.462 268.52 284.501 269.204C287.214 269.663 289.904 269.307 292.569 268.136C295.297 266.975 297.733 264.856 299.876 261.779L301.563 262.746Z" fill="black"/>
</svg>
