<svg width="1269" height="1082" viewBox="0 0 1269 1082" fill="none" xmlns="http://www.w3.org/2000/svg">
<path d="M182.5 150C196.167 150 208.833 151.333 220.5 154C232.5 156.667 242.167 160.333 249.5 165C260.833 172 266.5 181.167 266.5 192.5C266.5 201.5 263.333 209.167 257 215.5C250.667 221.833 243.167 225 234.5 225C225.833 225 218.333 221.833 212 215.5C205.667 209.167 202.5 201.667 202.5 193C202.5 187 204 181.5 207 176.5C210 171.5 214 167.667 219 165C211.333 160 199.167 157.5 182.5 157.5C149.5 157.5 125.833 170.333 111.5 196C106.5 204.667 103 215.667 101 229C99 242 98 260.333 98 284H178.5C199.5 284 215.833 283.667 227.5 283C239.5 282 250.833 280.333 261.5 278V483.5C261.5 510.5 259.667 534.167 256 554.5C252.333 574.833 245.333 591.5 235 604.5C227.333 614.5 218 622 207 627C196.333 632.333 185.5 635 174.5 635C166.167 635 159 633.333 153 630C145 625.333 141 618.167 141 608.5C141 601.5 143.167 595.833 147.5 591.5C151.833 587.167 157.5 585 164.5 585C171.167 585 176.5 587.167 180.5 591.5C184.833 595.833 187 601.167 187 607.5C187 615.167 184.333 621.833 179 627.5C187.333 626.5 194.167 624.333 199.5 621C204.833 617.667 209 612.5 212 605.5C215 597.5 216.5 586.833 216.5 573.5V338C216.5 322.667 213.667 311.5 208 304.5C202.333 297.5 192.5 294 178.5 294H98V489.5C98 504.833 102.333 515.5 111 521.5C120 527.5 133.333 530.5 151 530.5V541L139 540.5C105 539.5 83.3333 539 74 539C65.3333 539 45.6667 539.667 15 541V530.5C29 530.5 38.8333 528 44.5 523C50.1667 517.667 53 508.167 53 494.5V294H13V284H53C53 239 65 205.167 89 182.5C99.3333 172.833 112.333 165 128 159C143.667 153 161.833 150 182.5 150Z" fill="black"/>
<path d="M182.5 150C196.167 150 208.833 151.333 220.5 154C232.5 156.667 242.167 160.333 249.5 165C260.833 172 266.5 181.167 266.5 192.5C266.5 201.5 263.333 209.167 257 215.5C250.667 221.833 243.167 225 234.5 225C225.833 225 218.333 221.833 212 215.5C205.667 209.167 202.5 201.667 202.5 193C202.5 187 204 181.5 207 176.5C210 171.5 214 167.667 219 165C211.333 160 199.167 157.5 182.5 157.5C149.5 157.5 125.833 170.333 111.5 196C106.5 204.667 103 215.667 101 229C99 242 98 260.333 98 284H178.5C199.5 284 215.833 283.667 227.5 283C239.5 282 250.833 280.333 261.5 278V483.5C261.5 510.5 259.667 534.167 256 554.5C252.333 574.833 245.333 591.5 235 604.5C227.333 614.5 218 622 207 627C196.333 632.333 185.5 635 174.5 635C166.167 635 159 633.333 153 630C145 625.333 141 618.167 141 608.5C141 601.5 143.167 595.833 147.5 591.5C151.833 587.167 157.5 585 164.5 585C171.167 585 176.5 587.167 180.5 591.5C184.833 595.833 187 601.167 187 607.5C187 615.167 184.333 621.833 179 627.5C187.333 626.5 194.167 624.333 199.5 621C204.833 617.667 209 612.5 212 605.5C215 597.5 216.5 586.833 216.5 573.5V338C216.5 322.667 213.667 311.5 208 304.5C202.333 297.5 192.5 294 178.5 294H98V489.5C98 504.833 102.333 515.5 111 521.5C120 527.5 133.333 530.5 151 530.5V541L139 540.5C105 539.5 83.3333 539 74 539C65.3333 539 45.6667 539.667 15 541V530.5C29 530.5 38.8333 528 44.5 523C50.1667 517.667 53 508.167 53 494.5V294H13V284H53C53 239 65 205.167 89 182.5C99.3333 172.833 112.333 165 128 159C143.667 153 161.833 150 182.5 150Z" fill="black"/>
<path d="M623.5 499.5C631.833 478.5 643.333 463.333 658 454C673 444.333 689.833 439.5 708.5 439.5C731.833 439.5 749.5 445.833 761.5 458.5C767.833 465.167 772.333 473.5 775 483.5C777.667 493.5 779 507 779 524V657.5C779 671.167 781.833 680.667 787.5 686C793.167 691 803 693.5 817 693.5V704C786.333 702.667 766.333 702 757 702C747.667 702 729 702.667 701 704V693.5C713.333 693.5 721.833 691 726.5 686C731.5 680.667 734 671.167 734 657.5V513C734 494.333 731.333 480.167 726 470.5C720.667 460.5 709.833 455.5 693.5 455.5C679.833 455.5 667.667 459.333 657 467C646.667 474.667 638.5 485.5 632.5 499.5C626.5 513.167 623.5 528.667 623.5 546V657.5C623.5 671.167 625.833 680.667 630.5 686C635.5 691 644.167 693.5 656.5 693.5V704C628.5 702.667 609.833 702 600.5 702C591.167 702 571.167 702.667 540.5 704V693.5C554.5 693.5 564.333 691 570 686C575.667 680.667 578.5 671.167 578.5 657.5V379C578.5 369 577.333 360.833 575 354.5C572.667 347.833 569.333 342.167 565 337.5C559.333 331.833 552.5 327.667 544.5 325C536.5 322 528.833 320.5 521.5 320.5C507.833 320.5 496.333 325.167 487 334.5C480 341.5 475.333 350.5 473 361.5C471 372.167 470 385 470 400V447H533.5V457H470V657.5C470 671.167 473.5 680.667 480.5 686C487.833 691 498.667 693.5 513 693.5V704L502 703.5C473 702.5 454.833 702 447.5 702C437.833 702 417.667 702.667 387 704V693.5C401 693.5 410.833 691 416.5 686C422.167 680.667 425 671.167 425 657.5V457H385V447H425C425 418.333 427 395.667 431 379C435.333 362 444 347.667 457 336C474.333 320.667 495.5 313 520.5 313C525.833 313 534.5 313.667 546.5 315C559.833 317 571.667 318 582 318C599 318 612.833 316.167 623.5 312.5V499.5Z" fill="black"/>
<path d="M1231 1035.5C1231 1049.17 1233.83 1058.67 1239.5 1064C1245.17 1069 1255 1071.5 1269 1071.5V1082C1238.33 1080.67 1218.17 1080 1208.5 1080C1198.83 1080 1178.67 1080.67 1148 1082V1071.5C1162 1071.5 1171.83 1069 1177.5 1064C1183.17 1058.67 1186 1049.17 1186 1035.5V757C1186 746.667 1184.83 738.333 1182.5 732C1180.5 725.667 1177.17 720.167 1172.5 715.5C1166.5 709.5 1159 705.167 1150 702.5C1141.33 699.833 1132.83 698.5 1124.5 698.5C1107.83 698.5 1094.67 703.667 1085 714C1078 721 1073.33 729.667 1071 740C1068.67 750.333 1067.5 763 1067.5 778V825H1131V835H1067.5V1035.5C1067.5 1049.17 1071 1058.67 1078 1064C1085.33 1069 1096.17 1071.5 1110.5 1071.5V1082L1099.5 1081.5C1070.5 1080.5 1052.33 1080 1045 1080C1035.33 1080 1015.17 1080.67 984.5 1082V1071.5C998.5 1071.5 1008.33 1069 1014 1064C1019.67 1058.67 1022.5 1049.17 1022.5 1035.5V835H907V1035.5C907 1049.17 909.833 1058.67 915.5 1064C921.167 1069 931 1071.5 945 1071.5V1082C914.333 1080.67 894.333 1080 885 1080C875 1080 854.667 1080.67 824 1082V1071.5C838 1071.5 847.833 1069 853.5 1064C859.167 1058.67 862 1049.17 862 1035.5V835H822V825H862C862 789.667 870.167 762.5 886.5 743.5C895.5 733.5 906.667 725.667 920 720C933.667 714 948.833 711 965.5 711C995.5 711 1018.83 720 1035.5 738C1039.83 729.333 1046.17 721.333 1054.5 714C1063.5 706.333 1073.83 700.667 1085.5 697C1097.17 693 1109.33 691 1122 691C1128.67 691 1138.67 692 1152 694C1166 696 1176.83 697 1184.5 697C1201.83 697 1217.33 694.667 1231 690V1035.5ZM1022.5 825C1022.5 808 1023.17 793.333 1024.5 781C1025.83 768.333 1028.17 757.167 1031.5 747.5C1024.17 738.833 1015.33 732.167 1005 727.5C994.667 722.5 983.5 720 971.5 720C928.5 720 907 746.5 907 799.5V825H1022.5Z" fill="black"/>
<circle cx="214.5" cy="333.5" r="100" stroke="#017A28" stroke-width="7"/>
<circle cx="555.5" cy="333.5" r="100" stroke="#017A28" stroke-width="7"/>
<circle cx="1063.5" cy="790.5" r="100" stroke="#017A28" stroke-width="7"/>
</svg>
