<svg width="528" height="1877" viewBox="0 0 528 1877" fill="none" xmlns="http://www.w3.org/2000/svg">
<path d="M44.4961 40.3837C50.7681 40.7037 55.9201 41.6957 59.9521 43.3597C64.0481 45.0237 67.0241 47.1037 68.8801 49.5997C70.7361 52.0317 71.6641 54.6237 71.6641 57.3757C71.6641 63.6477 69.1681 68.3197 64.1761 71.3917C59.1841 74.4637 52.0801 75.9997 42.8641 75.9997C41.0081 75.9997 39.4401 75.9677 38.1601 75.9037C33.8081 75.7757 29.5521 75.7117 25.3921 75.7117C17.9041 75.7117 12.3361 75.8077 8.68809 75.9997V74.0797C10.7361 73.9517 12.2081 73.6957 13.1041 73.3117C14.0641 72.9277 14.7041 72.1917 15.0241 71.1037C15.3441 70.0157 15.5041 68.2557 15.5041 65.8237V18.2077C15.5041 15.7757 15.3121 14.0157 14.9281 12.9277C14.6081 11.8397 14.0001 11.1037 13.1041 10.7197C12.2081 10.3357 10.7361 10.0797 8.68809 9.95174V8.03174C12.3361 8.22374 17.8401 8.31974 25.2001 8.31974L36.2401 8.22374C37.5201 8.15974 38.9921 8.12774 40.6561 8.12774C49.1041 8.12774 55.5361 9.50374 59.9521 12.2557C64.4321 14.9437 66.6721 18.5917 66.6721 23.1997C66.6721 25.5677 65.8401 27.9677 64.1761 30.3997C62.5121 32.7677 60.0161 34.8477 56.6881 36.6397C53.3601 38.4317 49.2961 39.6157 44.4961 40.1917V40.3837ZM40.1761 9.95174C38.7041 9.95174 37.5841 10.1757 36.8161 10.6237C36.1121 11.0717 35.6321 11.8717 35.3761 13.0237C35.1201 14.1757 34.9921 15.9037 34.9921 18.2077V39.9037H37.5841C41.0401 39.9037 43.4401 38.4957 44.7841 35.6797C46.1921 32.7997 46.8961 28.9917 46.8961 24.2557C46.8961 19.3917 46.3521 15.8077 45.2641 13.5037C44.2401 11.1357 42.5441 9.95174 40.1761 9.95174ZM41.2321 73.7917C48.0801 73.7917 51.5041 68.1917 51.5041 56.9917C51.5041 51.9357 50.2881 48.0957 47.8561 45.4717C45.4241 42.8477 41.5841 41.5357 36.3361 41.5357H34.9921V65.8237C34.9921 68.1277 35.1521 69.8237 35.4721 70.9117C35.7921 71.9997 36.3681 72.7677 37.2001 73.2157C38.0961 73.5997 39.4401 73.7917 41.2321 73.7917Z" fill="black"/>
<path d="M97.4153 67.0717C97.4153 69.6957 97.7993 71.5197 98.5673 72.5437C99.3993 73.5037 100.807 73.9837 102.791 73.9837V75.9997C95.8793 75.7437 91.3353 75.6157 89.1593 75.6157C86.9833 75.6157 82.1833 75.7437 74.7593 75.9997V73.9837C76.7433 73.9837 78.1193 73.5037 78.8873 72.5437C79.7193 71.5197 80.1353 69.6957 80.1353 67.0717V12.4477C80.1353 9.50374 79.7193 7.35974 78.8873 6.01574C78.1193 4.67174 76.7433 3.99973 74.7593 3.99973V1.98374C76.7433 2.17574 78.7273 2.27174 80.7113 2.27174C87.3673 2.27174 92.9353 1.82374 97.4153 0.927734V67.0717Z" fill="black"/>
<path d="M119.027 76.6717C114.931 76.6717 111.827 75.5837 109.715 73.4077C107.667 71.1677 106.643 68.3837 106.643 65.0557C106.643 62.1757 107.379 59.8077 108.851 57.9517C110.387 56.0317 112.179 54.5597 114.227 53.5357C116.275 52.5117 118.931 51.4557 122.195 50.3677C125.651 49.2157 128.179 48.1597 129.779 47.1997C131.379 46.2397 132.179 44.8957 132.179 43.1677V34.6237C132.179 32.5757 131.667 30.7517 130.643 29.1517C129.619 27.5517 127.859 26.7517 125.363 26.7517C123.379 26.7517 121.587 27.2957 119.987 28.3837C122.163 29.1517 123.763 30.3037 124.787 31.8397C125.875 33.3117 126.419 34.9757 126.419 36.8317C126.419 39.3277 125.523 41.3437 123.731 42.8797C122.003 44.3517 119.891 45.0877 117.395 45.0877C114.899 45.0877 112.915 44.3197 111.443 42.7837C110.035 41.1837 109.331 39.1677 109.331 36.7357C109.331 34.8157 109.811 33.1517 110.771 31.7437C111.731 30.3357 113.235 29.0557 115.283 27.9037C118.867 25.8557 123.987 24.8317 130.643 24.8317C134.163 24.8317 137.203 25.1837 139.763 25.8877C142.323 26.5277 144.499 27.7757 146.291 29.6317C147.571 30.9757 148.403 32.6717 148.787 34.7197C149.235 36.7037 149.459 39.4877 149.459 43.0717V68.7997C149.459 70.3997 149.555 71.4877 149.747 72.0637C150.003 72.6397 150.419 72.9277 150.995 72.9277C151.443 72.9277 151.923 72.7997 152.435 72.5437C152.947 72.2237 153.427 71.8717 153.875 71.4877L154.835 73.1197C152.083 75.4877 148.147 76.6717 143.027 76.6717C139.187 76.6717 136.499 76.0317 134.963 74.7517C133.427 73.4077 132.595 71.6157 132.467 69.3757C129.459 74.2397 124.979 76.6717 119.027 76.6717ZM128.627 68.9917C129.971 68.9917 131.155 68.4477 132.179 67.3597V47.1037C131.603 48.0637 130.547 49.3117 129.011 50.8477C127.283 52.5117 125.971 54.1437 125.075 55.7437C124.179 57.2797 123.731 59.3917 123.731 62.0797C123.731 66.6877 125.363 68.9917 128.627 68.9917Z" fill="black"/>
<path d="M183.083 24.8317C185.707 24.8317 188.107 25.1197 190.283 25.6957C192.523 26.2077 194.347 26.8797 195.755 27.7117C197.547 28.7357 198.955 30.1117 199.979 31.8397C201.003 33.5677 201.515 35.5197 201.515 37.6957C201.515 40.3837 200.651 42.6237 198.923 44.4157C197.195 46.1437 194.987 47.0077 192.299 47.0077C189.547 47.0077 187.371 46.2397 185.771 44.7037C184.235 43.1037 183.467 40.9917 183.467 38.3677C183.467 36.0637 184.203 34.0477 185.675 32.3197C187.211 30.5277 189.099 29.3437 191.339 28.7677C190.379 27.9997 189.099 27.6157 187.499 27.6157C183.403 27.6157 180.523 29.8237 178.859 34.2397C177.195 38.5917 176.363 43.7757 176.363 49.7917C176.363 55.9357 177.515 60.3197 179.819 62.9437C182.123 65.5677 184.971 66.8797 188.363 66.8797C193.035 66.8797 196.907 64.7357 199.979 60.4477L201.611 61.0237C200.203 65.5037 197.803 69.3437 194.411 72.5437C191.083 75.7437 186.795 77.3437 181.547 77.3437C174.571 77.3437 168.971 75.2637 164.747 71.1037C160.523 66.9437 158.411 60.2877 158.411 51.1357C158.411 42.3677 160.651 35.8077 165.131 31.4557C169.675 27.0397 175.659 24.8317 183.083 24.8317Z" fill="black"/>
<path d="M258.629 68.9917C258.757 69.2477 259.045 69.7917 259.493 70.6237C259.941 71.4557 260.389 72.1597 260.837 72.7357C261.349 73.2477 261.893 73.6637 262.469 73.9837V75.9997C256.581 75.7437 252.709 75.6157 250.853 75.6157C248.741 75.6157 244.229 75.7437 237.317 75.9997V73.9837C239.173 73.9837 240.101 73.3757 240.101 72.1597C240.101 71.7117 239.973 71.2317 239.717 70.7197L231.269 52.8637C230.885 52.1597 230.437 51.6477 229.925 51.3277C229.477 51.0077 228.901 50.8157 228.197 50.7517V67.0717C228.197 69.6957 228.581 71.5197 229.349 72.5437C230.181 73.5037 231.589 73.9837 233.573 73.9837V75.9997C226.661 75.7437 222.117 75.6157 219.941 75.6157C217.765 75.6157 212.965 75.7437 205.541 75.9997V73.9837C207.525 73.9837 208.901 73.5037 209.669 72.5437C210.501 71.5197 210.917 69.6957 210.917 67.0717V12.4477C210.917 9.50374 210.501 7.35974 209.669 6.01574C208.901 4.67174 207.525 3.99973 205.541 3.99973V1.98374C207.525 2.17574 209.509 2.27174 211.493 2.27174C218.149 2.27174 223.717 1.82374 228.197 0.927734V48.9277C229.989 48.9277 231.365 48.4477 232.325 47.4877L239.717 40.5757C241.957 38.5277 243.077 36.4477 243.077 34.3357C243.077 32.6717 242.341 31.2637 240.869 30.1117C239.461 28.9597 237.637 28.2877 235.397 28.0957V26.1757C239.045 26.3677 242.885 26.4637 246.917 26.4637C253.189 26.4637 257.573 26.3677 260.069 26.1757V28.0957C255.653 29.3117 250.917 32.4477 245.861 37.5037L243.365 39.9997L258.629 68.9917Z" fill="black"/>
<path d="M42.4401 176.48C47.7521 176.416 52.3281 176.992 56.1681 178.208C60.0081 179.424 62.9201 181.152 64.9041 183.392C66.9521 185.568 67.9761 188.064 67.9761 190.88C67.9761 197.6 65.0001 202.816 59.0481 206.528C53.1601 210.176 44.9361 212 34.3761 212C32.5201 212 30.9521 211.968 29.6721 211.904C25.8321 211.776 21.7361 211.712 17.3841 211.712C10.0881 211.712 4.42409 211.808 0.39209 212L0.77609 210.08C3.08009 209.952 4.80809 209.696 5.96009 209.312C7.11209 208.928 8.00809 208.192 8.64809 207.104C9.35209 206.016 10.0241 204.256 10.6641 201.824L23.3361 154.208C23.9121 151.904 24.2001 150.368 24.2001 149.6C24.2001 148.32 23.7201 147.424 22.7601 146.912C21.8001 146.336 20.1041 146.016 17.6721 145.952L18.1521 144.032C22.0561 144.224 27.6241 144.32 34.8561 144.32L43.9761 144.224C45.1921 144.16 46.9201 144.128 49.1601 144.128C64.6481 144.128 72.3921 148.448 72.3921 157.088C72.3921 160.544 71.2081 163.712 68.8401 166.592C66.5361 169.472 63.1121 171.808 58.5681 173.6C54.0241 175.328 48.6481 176.288 42.4401 176.48ZM48.2001 145.952C46.8561 145.952 45.8321 146.4 45.1281 147.296C44.4881 148.192 43.8161 150.016 43.1121 152.768L36.9681 175.904H38.4081C41.6081 175.904 44.3601 174.88 46.6641 172.832C48.9681 170.784 50.6961 168.096 51.8481 164.768C53.0001 161.44 53.5761 157.888 53.5761 154.112C53.5761 151.552 53.1921 149.568 52.4241 148.16C51.6561 146.688 50.2481 145.952 48.2001 145.952ZM33.2241 209.792C35.9121 209.792 38.3441 208.8 40.5201 206.816C42.7601 204.768 44.4881 202.144 45.7041 198.944C46.9841 195.68 47.6241 192.352 47.6241 188.96C47.6241 185.568 46.8881 182.816 45.4161 180.704C44.0081 178.592 41.6721 177.536 38.4081 177.536H36.5841L30.1521 201.824C29.6401 203.616 29.3841 205.056 29.3841 206.144C29.3841 208.576 30.6641 209.792 33.2241 209.792Z" fill="black"/>
<path d="M89.3803 203.84C89.1883 204.48 89.0923 205.088 89.0923 205.664C89.0923 206.432 89.2523 207.008 89.5723 207.392C89.9563 207.712 90.4043 207.872 90.9163 207.872C91.5563 207.872 92.2923 207.488 93.1243 206.72C94.0203 205.888 94.9163 204.256 95.8123 201.824L97.8283 196.448H99.6523L97.2523 203.456C95.9723 207.168 94.0843 209.76 91.5883 211.232C89.0923 212.64 86.4363 213.344 83.6203 213.344C80.4203 213.344 77.9243 212.512 76.1323 210.848C74.3403 209.184 73.4443 206.784 73.4443 203.648C73.4443 201.664 73.8283 199.392 74.5963 196.832L89.2843 147.968C89.6043 146.816 89.7643 145.92 89.7643 145.28C89.7643 144 89.2523 143.072 88.2283 142.496C87.2683 141.92 85.6043 141.632 83.2363 141.632L83.9083 139.616C88.9643 139.552 93.5403 139.2 97.6363 138.56C101.732 137.92 105.732 136.96 109.636 135.68L89.3803 203.84Z" fill="black"/>
<path d="M153.547 196.448H155.371L152.971 203.456C150.667 210.048 146.091 213.344 139.243 213.344C135.339 213.344 132.555 212.224 130.891 209.984C129.803 208.384 129.259 206.432 129.259 204.128C129.259 203.424 129.291 202.88 129.355 202.496C127.819 206.4 125.835 209.184 123.403 210.848C120.971 212.512 118.091 213.344 114.763 213.344C110.795 213.344 107.819 212.32 105.835 210.272C103.851 208.224 102.859 205.248 102.859 201.344C102.859 195.328 104.459 189.152 107.659 182.816C110.923 176.48 114.955 171.232 119.755 167.072C124.619 162.912 129.259 160.832 133.675 160.832C137.323 160.832 139.307 162.656 139.627 166.304L140.875 162.272C147.083 162.208 152.875 161.728 158.251 160.832L145.291 203.84C145.035 204.672 144.907 205.44 144.907 206.144C144.907 207.296 145.419 207.872 146.443 207.872C148.299 207.872 149.995 205.856 151.531 201.824L153.547 196.448ZM123.115 206.816C124.459 206.816 125.803 205.792 127.147 203.744C128.491 201.696 130.027 198.016 131.755 192.704L138.667 169.664C138.731 169.344 138.763 168.864 138.763 168.224C138.763 166.432 138.155 165.536 136.939 165.536C135.147 165.536 132.939 167.392 130.315 171.104C127.755 174.816 125.547 179.488 123.691 185.12C121.835 190.752 120.907 196.288 120.907 201.728C120.907 203.584 121.067 204.896 121.387 205.664C121.707 206.432 122.283 206.816 123.115 206.816Z" fill="black"/>
<path d="M196.078 162.752C192.942 162.752 189.934 164.48 187.054 167.936C184.238 171.328 181.934 175.744 180.142 181.184C178.414 186.56 177.55 192.032 177.55 197.6C177.55 200.928 178.222 203.392 179.566 204.992C180.91 206.592 182.798 207.392 185.23 207.392C187.278 207.392 189.23 206.816 191.086 205.664C192.942 204.512 194.83 202.528 196.75 199.712L198.67 200.48C193.166 209.056 185.838 213.344 176.686 213.344C171.566 213.344 167.438 212.096 164.302 209.6C161.166 207.04 159.598 203.232 159.598 198.176C159.598 192.48 161.07 186.752 164.014 180.992C166.958 175.168 171.118 170.368 176.494 166.592C181.87 162.752 187.982 160.832 194.83 160.832C198.67 160.832 201.71 161.792 203.95 163.712C206.19 165.632 207.31 168 207.31 170.816C207.31 172.864 206.798 174.88 205.774 176.864C204.75 178.784 203.374 180.352 201.646 181.568C199.918 182.784 198.062 183.392 196.078 183.392C194.286 183.392 192.75 182.816 191.47 181.664C190.19 180.448 189.55 178.784 189.55 176.672C189.55 173.664 190.51 171.008 192.43 168.704C194.35 166.336 196.654 164.736 199.342 163.904C198.51 163.136 197.422 162.752 196.078 162.752Z" fill="black"/>
<path d="M243.058 174.848C243.058 172.352 243.858 170.176 245.458 168.32C247.122 166.464 249.17 164.992 251.602 163.904C251.346 163.52 250.994 163.232 250.546 163.04C250.098 162.784 249.65 162.656 249.202 162.656C247.474 162.656 246.002 163.168 244.786 164.192C243.954 164.896 243.25 165.824 242.674 166.976C242.162 168.064 241.522 169.664 240.754 171.776C239.538 175.232 238.29 177.952 237.01 179.936C235.794 181.92 233.906 183.264 231.346 183.968C243.058 184.096 248.914 187.712 248.914 194.816C248.914 196.032 248.786 197.184 248.53 198.272L247.378 203.84C247.186 204.672 247.09 205.376 247.09 205.952C247.09 207.232 247.57 207.872 248.53 207.872C250.386 207.872 252.082 205.856 253.618 201.824L255.634 196.448H257.458L255.058 203.456C252.626 210.048 247.506 213.344 239.698 213.344C236.562 213.344 234.226 212.64 232.69 211.232C231.154 209.76 230.386 207.68 230.386 204.992C230.386 203.904 230.546 202.56 230.866 200.96L232.498 194.144C232.946 192.608 233.17 191.232 233.17 190.016C233.17 188.608 232.786 187.52 232.018 186.752C231.314 185.92 230.162 185.312 228.562 184.928L220.594 212H203.602L222.61 147.968C222.93 146.816 223.09 145.92 223.09 145.28C223.09 144 222.578 143.072 221.554 142.496C220.594 141.92 218.93 141.632 216.562 141.632L217.234 139.616C222.29 139.552 226.866 139.2 230.962 138.56C235.058 137.92 239.058 136.96 242.962 135.68L229.042 183.104C231.026 182.656 232.658 181.856 233.938 180.704C235.218 179.488 236.178 178.176 236.818 176.768C237.522 175.36 238.258 173.504 239.026 171.2C239.73 169.152 240.37 167.488 240.946 166.208C241.586 164.928 242.386 163.872 243.346 163.04C244.242 162.272 245.234 161.728 246.322 161.408C247.474 161.024 248.53 160.832 249.49 160.832C253.01 160.832 255.73 161.888 257.65 164C259.57 166.048 260.53 168.64 260.53 171.776C260.53 174.784 259.602 177.152 257.746 178.88C255.954 180.608 253.65 181.472 250.834 181.472C248.402 181.472 246.482 180.864 245.074 179.648C243.73 178.368 243.058 176.768 243.058 174.848Z" fill="black"/>
<path d="M311.121 201.824C310.545 204.256 310.257 205.824 310.257 206.528C310.257 207.872 310.705 208.768 311.601 209.216C312.561 209.664 314.289 209.952 316.785 210.08L316.401 212C312.305 211.808 306.321 211.712 298.449 211.712C290.897 211.712 285.233 211.808 281.457 212L281.937 210.08C284.177 209.952 285.841 209.696 286.929 209.312C288.081 208.928 288.977 208.192 289.617 207.104C290.321 205.952 290.993 204.192 291.633 201.824L304.305 154.208C304.817 152.032 305.073 150.496 305.073 149.6C305.073 148.192 304.593 147.264 303.633 146.816C302.737 146.368 301.073 146.08 298.641 145.952L299.121 144.032C302.705 144.224 308.369 144.32 316.113 144.32C323.345 144.32 329.361 144.224 334.161 144.032L333.681 145.952C331.313 146.08 329.553 146.336 328.401 146.72C327.313 147.104 326.417 147.84 325.713 148.928C325.073 150.016 324.433 151.776 323.793 154.208L311.121 201.824Z" fill="black"/>
<path d="M344.997 203.84C344.805 204.48 344.709 205.088 344.709 205.664C344.709 207.136 345.381 207.872 346.725 207.872C348.005 207.872 349.285 207.2 350.565 205.856C351.845 204.448 352.869 202.688 353.637 200.576L355.173 196.448H356.997L355.173 201.728C353.893 205.44 351.941 208.32 349.317 210.368C346.693 212.352 343.557 213.344 339.909 213.344C336.325 213.344 333.637 212.416 331.845 210.56C330.117 208.704 329.253 206.176 329.253 202.976C329.253 201.312 329.573 199.264 330.213 196.832L339.621 164.096H330.885L331.365 162.176H340.197L344.229 148.064C350.949 148 356.773 147.552 361.701 146.72L357.189 162.176H366.789L366.501 164.096H356.613L344.997 203.84Z" fill="black"/>
<path d="M411.547 196.448H413.371L410.971 203.456C408.667 210.048 404.091 213.344 397.243 213.344C393.339 213.344 390.555 212.224 388.891 209.984C387.803 208.384 387.259 206.432 387.259 204.128C387.259 203.424 387.291 202.88 387.355 202.496C385.819 206.4 383.835 209.184 381.403 210.848C378.971 212.512 376.091 213.344 372.763 213.344C368.795 213.344 365.819 212.32 363.835 210.272C361.851 208.224 360.859 205.248 360.859 201.344C360.859 195.328 362.459 189.152 365.659 182.816C368.923 176.48 372.955 171.232 377.755 167.072C382.619 162.912 387.259 160.832 391.675 160.832C395.323 160.832 397.307 162.656 397.627 166.304L398.875 162.272C405.083 162.208 410.875 161.728 416.251 160.832L403.291 203.84C403.035 204.672 402.907 205.44 402.907 206.144C402.907 207.296 403.419 207.872 404.443 207.872C406.299 207.872 407.995 205.856 409.531 201.824L411.547 196.448ZM381.115 206.816C382.459 206.816 383.803 205.792 385.147 203.744C386.491 201.696 388.027 198.016 389.755 192.704L396.667 169.664C396.731 169.344 396.763 168.864 396.763 168.224C396.763 166.432 396.155 165.536 394.939 165.536C393.147 165.536 390.939 167.392 388.315 171.104C385.755 174.816 383.547 179.488 381.691 185.12C379.835 190.752 378.907 196.288 378.907 201.728C378.907 203.584 379.067 204.896 379.387 205.664C379.707 206.432 380.283 206.816 381.115 206.816Z" fill="black"/>
<path d="M433.63 203.84C433.438 204.48 433.342 205.088 433.342 205.664C433.342 206.432 433.502 207.008 433.822 207.392C434.206 207.712 434.654 207.872 435.166 207.872C435.806 207.872 436.542 207.488 437.374 206.72C438.27 205.888 439.166 204.256 440.062 201.824L442.078 196.448H443.902L441.502 203.456C440.222 207.168 438.334 209.76 435.838 211.232C433.342 212.64 430.686 213.344 427.87 213.344C424.67 213.344 422.174 212.512 420.382 210.848C418.59 209.184 417.694 206.784 417.694 203.648C417.694 201.664 418.078 199.392 418.846 196.832L433.534 147.968C433.854 146.816 434.014 145.92 434.014 145.28C434.014 144 433.502 143.072 432.478 142.496C431.518 141.92 429.854 141.632 427.486 141.632L428.158 139.616C433.214 139.552 437.79 139.2 441.886 138.56C445.982 137.92 449.982 136.96 453.886 135.68L433.63 203.84Z" fill="black"/>
<path d="M464.005 147.104C464.005 143.776 465.061 141.248 467.173 139.52C469.349 137.792 472.197 136.928 475.717 136.928C478.533 136.928 480.645 137.472 482.053 138.56C483.525 139.648 484.261 141.28 484.261 143.456C484.261 146.4 483.141 148.8 480.901 150.656C478.661 152.512 475.845 153.44 472.453 153.44C469.701 153.44 467.589 152.896 466.117 151.808C464.709 150.72 464.005 149.152 464.005 147.104ZM459.973 170.336C460.293 169.504 460.453 168.704 460.453 167.936C460.453 166.848 460.005 166.304 459.109 166.304C458.085 166.304 457.157 166.752 456.325 167.648C455.493 168.544 454.661 170.112 453.829 172.352L451.621 178.208H449.797L452.485 170.72C454.853 164.128 459.621 160.832 466.789 160.832C470.245 160.832 472.773 161.664 474.373 163.328C475.973 164.992 476.773 167.104 476.773 169.664C476.773 171.072 476.517 172.608 476.005 174.272L466.021 203.84C465.701 204.928 465.541 205.696 465.541 206.144C465.541 207.296 466.085 207.872 467.173 207.872C469.029 207.872 470.725 205.856 472.261 201.824L474.277 196.448H476.101L473.701 203.456C471.397 210.048 466.821 213.344 459.973 213.344C456.709 213.344 454.181 212.576 452.389 211.04C450.597 209.504 449.701 207.232 449.701 204.224C449.701 202.176 450.181 199.712 451.141 196.832L459.973 170.336Z" fill="black"/>
<path d="M516.703 162.752C513.567 162.752 510.559 164.48 507.679 167.936C504.863 171.328 502.559 175.744 500.767 181.184C499.039 186.56 498.175 192.032 498.175 197.6C498.175 200.928 498.847 203.392 500.191 204.992C501.535 206.592 503.423 207.392 505.855 207.392C507.903 207.392 509.855 206.816 511.711 205.664C513.567 204.512 515.455 202.528 517.375 199.712L519.295 200.48C513.791 209.056 506.463 213.344 497.311 213.344C492.191 213.344 488.063 212.096 484.927 209.6C481.791 207.04 480.223 203.232 480.223 198.176C480.223 192.48 481.695 186.752 484.639 180.992C487.583 175.168 491.743 170.368 497.119 166.592C502.495 162.752 508.607 160.832 515.455 160.832C519.295 160.832 522.335 161.792 524.575 163.712C526.815 165.632 527.935 168 527.935 170.816C527.935 172.864 527.423 174.88 526.399 176.864C525.375 178.784 523.999 180.352 522.271 181.568C520.543 182.784 518.687 183.392 516.703 183.392C514.911 183.392 513.375 182.816 512.095 181.664C510.815 180.448 510.175 178.784 510.175 176.672C510.175 173.664 511.135 171.008 513.055 168.704C514.975 166.336 517.279 164.736 519.967 163.904C519.135 163.136 518.047 162.752 516.703 162.752Z" fill="black"/>
<path d="M42.4401 313.287C50.7601 313.927 56.8721 315.847 60.7761 319.047C64.6801 322.247 66.6321 326.023 66.6321 330.375C66.6321 336.327 64.2961 340.935 59.6241 344.199C54.9521 347.399 48.4561 348.999 40.1361 348.999C38.2801 348.999 36.7121 348.967 35.4321 348.903C31.2081 348.775 27.0801 348.711 23.0481 348.711C16.4561 348.711 11.5281 348.807 8.26409 348.999V347.079C10.3761 346.951 11.9121 346.695 12.8721 346.311C13.8961 345.927 14.5681 345.191 14.8881 344.103C15.2721 343.015 15.4641 341.255 15.4641 338.823V291.207C15.4641 288.775 15.2721 287.015 14.8881 285.927C14.5681 284.839 13.8961 284.103 12.8721 283.719C11.9121 283.335 10.3761 283.079 8.26409 282.951V281.031C11.5281 281.223 16.3921 281.319 22.8561 281.319L33.5121 281.223C34.7921 281.159 36.2641 281.127 37.9281 281.127C45.6081 281.127 51.4641 282.503 55.4961 285.255C59.5921 288.007 61.6401 291.655 61.6401 296.199C61.6401 299.911 60.0081 303.367 56.7441 306.567C53.5441 309.767 48.7761 311.943 42.4401 313.095V313.287ZM36.6801 282.951C34.9521 282.951 33.6721 283.175 32.8401 283.623C32.0721 284.071 31.5281 284.871 31.2081 286.023C30.8881 287.175 30.7281 288.903 30.7281 291.207V312.903H34.8561C39.0161 312.903 41.9281 311.495 43.5921 308.679C45.2561 305.799 46.0881 301.991 46.0881 297.255C46.0881 292.455 45.3201 288.871 43.7841 286.503C42.3121 284.135 39.9441 282.951 36.6801 282.951ZM37.3521 346.791C46.2481 346.791 50.6961 341.191 50.6961 329.991C50.6961 324.935 49.4161 321.095 46.8561 318.471C44.2961 315.847 40.2641 314.535 34.7601 314.535H30.7281V338.823C30.7281 341.127 30.8881 342.823 31.2081 343.911C31.5281 344.999 32.1361 345.767 33.0321 346.215C33.9921 346.599 35.4321 346.791 37.3521 346.791Z" fill="black"/>
<path d="M96.5721 298.023C103.932 298.023 109.692 300.135 113.852 304.359C118.012 308.519 120.092 315.143 120.092 324.231C120.092 333.319 118.012 339.943 113.852 344.103C109.692 348.263 103.932 350.343 96.5721 350.343C89.2761 350.343 83.5161 348.263 79.2921 344.103C75.1321 339.943 73.0521 333.319 73.0521 324.231C73.0521 315.143 75.1321 308.519 79.2921 304.359C83.5161 300.135 89.2761 298.023 96.5721 298.023ZM96.5721 299.943C93.8201 299.943 91.6121 301.959 89.9481 305.991C88.3481 309.959 87.5481 316.039 87.5481 324.231C87.5481 332.423 88.3481 338.503 89.9481 342.471C91.6121 346.439 93.8201 348.423 96.5721 348.423C99.3881 348.423 101.596 346.471 103.196 342.567C104.796 338.599 105.596 332.487 105.596 324.231C105.596 315.975 104.764 309.863 103.1 305.895C101.5 301.927 99.3241 299.943 96.5721 299.943Z" fill="black"/>
<path d="M144.732 340.071C144.732 342.695 145.18 344.519 146.076 345.543C146.972 346.503 148.572 346.983 150.876 346.983V348.999C144.22 348.743 139.932 348.615 138.012 348.615C135.836 348.615 131.42 348.743 124.764 348.999V346.983C127.004 346.983 128.572 346.503 129.468 345.543C130.428 344.519 130.908 342.695 130.908 340.071V285.351C130.908 282.407 130.428 280.263 129.468 278.919C128.572 277.575 127.004 276.903 124.764 276.903V274.887C126.812 275.079 128.796 275.175 130.716 275.175C136.284 275.175 140.956 274.727 144.732 273.831V340.071Z" fill="black"/>
<path d="M201.255 338.439C201.255 341.383 201.703 343.527 202.599 344.871C203.495 346.215 205.095 346.887 207.399 346.887V348.903C205.415 348.711 203.431 348.615 201.447 348.615C195.751 348.615 191.079 349.063 187.431 349.959V341.703C185.255 347.463 181.095 350.343 174.951 350.343C168.935 350.343 164.135 348.167 160.551 343.815C157.031 339.399 155.303 332.775 155.367 323.943C155.367 318.311 156.263 313.575 158.055 309.735C159.911 305.831 162.439 302.919 165.639 300.999C168.903 299.015 172.615 298.023 176.775 298.023C181.447 298.023 184.999 299.239 187.431 301.671V285.351C187.431 282.407 186.951 280.263 185.991 278.919C185.095 277.575 183.527 276.903 181.287 276.903V274.887C183.335 275.079 185.319 275.175 187.239 275.175C192.807 275.175 197.479 274.727 201.255 273.831V338.439ZM178.887 346.215C180.999 346.215 182.855 345.447 184.455 343.911C186.119 342.375 187.111 340.295 187.431 337.671V304.071C185.831 301.895 183.495 300.807 180.423 300.807C177.031 300.807 174.407 302.759 172.551 306.663C170.695 310.567 169.799 316.391 169.863 324.135C169.799 331.943 170.535 337.575 172.071 341.031C173.671 344.487 175.943 346.215 178.887 346.215Z" fill="black"/>
<path d="M68.3601 1653.2C66.8881 1655.38 65.4161 1656.94 63.9441 1657.9C62.4721 1658.86 60.5201 1659.34 58.0881 1659.34C55.4641 1659.34 53.2881 1658.58 51.5601 1657.04C49.8961 1655.5 48.6481 1652.82 47.8161 1648.98L45.7041 1639.38C44.9361 1636.05 44.2001 1633.49 43.4961 1631.7C42.8561 1629.9 41.8641 1628.46 40.5201 1627.38C39.1761 1626.29 37.2881 1625.74 34.8561 1625.74H25.7361V1647.82C25.7361 1650.26 25.9281 1652.02 26.3121 1653.1C26.6961 1654.19 27.4001 1654.93 28.4241 1655.31C29.5121 1655.7 31.2081 1655.95 33.5121 1656.08V1658C30.5681 1657.81 26.5041 1657.71 21.3201 1657.71C15.8161 1657.71 11.7201 1657.81 9.03209 1658V1656.08C11.3361 1655.95 13.0001 1655.7 14.0241 1655.31C15.1121 1654.93 15.8481 1654.19 16.2321 1653.1C16.6161 1652.02 16.8081 1650.26 16.8081 1647.82V1600.21C16.8081 1597.78 16.6161 1596.02 16.2321 1594.93C15.8481 1593.84 15.1121 1593.1 14.0241 1592.72C13.0001 1592.34 11.3361 1592.08 9.03209 1591.95V1590.03C11.7201 1590.22 15.6241 1590.32 20.7441 1590.32L31.1121 1590.22C32.3281 1590.16 33.7041 1590.13 35.2401 1590.13C42.6641 1590.13 48.3601 1591.7 52.3281 1594.83C56.3601 1597.9 58.3761 1601.9 58.3761 1606.83C58.3761 1609.33 57.7681 1611.86 56.5521 1614.42C55.4001 1616.91 53.4161 1619.18 50.6001 1621.23C47.8481 1623.22 44.2321 1624.56 39.7521 1625.26L40.9041 1625.46C45.1281 1626.16 48.2001 1627.44 50.1201 1629.3C52.0401 1631.15 53.4481 1634.1 54.3441 1638.13L56.7441 1647.92C57.3841 1650.86 58.0561 1652.91 58.7601 1654.06C59.4641 1655.22 60.4241 1655.79 61.6401 1655.79C62.7281 1655.79 63.6241 1655.5 64.3281 1654.93C65.0961 1654.35 65.9601 1653.42 66.9201 1652.14L68.3601 1653.2ZM32.8401 1591.95C30.8561 1591.95 29.3521 1592.18 28.3281 1592.62C27.3681 1593.07 26.6961 1593.87 26.3121 1595.02C25.9281 1596.18 25.7361 1597.9 25.7361 1600.21V1623.82H32.1681C38.5041 1623.82 42.8561 1622.42 45.2241 1619.6C47.5921 1616.78 48.7761 1612.88 48.7761 1607.89C48.7761 1602.64 47.5281 1598.67 45.0321 1595.98C42.5361 1593.3 38.4721 1591.95 32.8401 1591.95Z" fill="black"/>
<path d="M111.698 1646.48C110.546 1650 108.37 1653.04 105.17 1655.6C102.034 1658.1 98.2261 1659.34 93.7461 1659.34C89.2021 1659.34 85.2661 1658.32 81.9381 1656.27C78.6101 1654.16 76.0501 1651.25 74.2581 1647.54C72.5301 1643.76 71.6661 1639.41 71.6661 1634.48C71.6661 1628.91 72.5621 1624.08 74.3541 1619.98C76.1461 1615.89 78.6741 1612.75 81.9381 1610.58C85.2021 1608.34 89.0101 1607.22 93.3621 1607.22C99.1221 1607.22 103.538 1608.98 106.61 1612.5C109.746 1615.95 111.314 1621.23 111.314 1628.34H81.2661C81.0741 1630.13 80.9781 1632.18 80.9781 1634.48C80.9781 1638.7 81.6501 1642.38 82.9941 1645.52C84.4021 1648.66 86.2261 1651.09 88.4661 1652.82C90.7701 1654.48 93.1701 1655.31 95.6661 1655.31C98.7381 1655.31 101.458 1654.58 103.826 1653.1C106.194 1651.63 108.178 1649.17 109.778 1645.71L111.698 1646.48ZM92.9781 1609.04C89.9701 1609.04 87.3781 1610.51 85.2021 1613.46C83.0261 1616.4 81.6821 1620.75 81.1701 1626.51H102.098C102.226 1621.52 101.49 1617.36 99.8901 1614.03C98.3541 1610.7 96.0501 1609.04 92.9781 1609.04Z" fill="black"/>
<path d="M161.029 1617.2C159.877 1617.2 158.885 1616.82 158.053 1616.05C157.285 1615.28 156.901 1614.16 156.901 1612.69C156.901 1611.41 157.221 1609.94 157.861 1608.27C156.197 1608.98 154.885 1609.78 153.925 1610.67C152.965 1611.5 152.101 1612.56 151.333 1613.84C152.805 1616.08 153.541 1618.93 153.541 1622.38C153.541 1627.44 152.005 1631.25 148.933 1633.81C145.861 1636.3 141.797 1637.55 136.741 1637.55H136.645C134.533 1638.77 132.933 1639.89 131.845 1640.91C130.757 1641.94 130.213 1643.09 130.213 1644.37C130.213 1646.42 131.749 1647.44 134.821 1647.44H146.821C151.173 1647.44 154.757 1648.4 157.573 1650.32C160.453 1652.18 161.893 1654.99 161.893 1658.77C161.893 1661.84 160.901 1664.69 158.917 1667.31C156.933 1669.94 154.021 1672.05 150.181 1673.65C146.341 1675.25 141.701 1676.05 136.261 1676.05C130.693 1676.05 126.021 1675.18 122.245 1673.46C118.533 1671.79 116.677 1669.3 116.677 1665.97C116.677 1663.79 117.541 1661.9 119.269 1660.3C121.061 1658.7 123.525 1657.46 126.661 1656.56L127.237 1658.1C125.829 1658.54 124.709 1659.44 123.877 1660.78C123.045 1662.13 122.629 1663.63 122.629 1665.3C122.629 1668.24 123.941 1670.48 126.565 1672.02C129.253 1673.62 132.837 1674.42 137.317 1674.42C142.245 1674.42 146.469 1673.46 149.989 1671.54C153.509 1669.68 155.269 1666.77 155.269 1662.8C155.269 1660.5 154.437 1658.7 152.773 1657.42C151.173 1656.14 148.293 1655.5 144.133 1655.5H137.029C133.253 1655.5 130.213 1655.02 127.909 1654.06C125.669 1653.1 124.549 1651.18 124.549 1648.3C124.549 1646.32 125.253 1644.43 126.661 1642.64C128.133 1640.85 130.533 1639.09 133.861 1637.36C129.637 1636.91 126.245 1635.44 123.685 1632.94C121.189 1630.45 119.941 1626.93 119.941 1622.38C119.941 1617.33 121.477 1613.55 124.549 1611.06C127.621 1608.5 131.685 1607.22 136.741 1607.22C142.757 1607.22 147.205 1608.88 150.085 1612.21C151.301 1610.48 152.837 1609.07 154.693 1607.98C156.549 1606.83 158.405 1606.26 160.261 1606.26C161.925 1606.26 163.269 1606.74 164.293 1607.7C165.317 1608.66 165.829 1610.03 165.829 1611.82C165.829 1613.62 165.317 1614.96 164.293 1615.86C163.333 1616.75 162.245 1617.2 161.029 1617.2ZM136.741 1635.82C139.301 1635.82 141.221 1634.83 142.501 1632.85C143.845 1630.8 144.517 1627.31 144.517 1622.38C144.517 1617.46 143.845 1614 142.501 1612.02C141.221 1609.97 139.301 1608.94 136.741 1608.94C134.181 1608.94 132.229 1609.97 130.885 1612.02C129.605 1614 128.965 1617.46 128.965 1622.38C128.965 1627.31 129.605 1630.8 130.885 1632.85C132.229 1634.83 134.181 1635.82 136.741 1635.82Z" fill="black"/>
<path d="M212.899 1647.63C212.899 1650.58 213.443 1652.72 214.531 1654.06C215.619 1655.41 217.507 1656.08 220.195 1656.08V1658.1C218.211 1657.9 216.227 1657.81 214.243 1657.81C210.211 1657.81 206.883 1658.26 204.259 1659.15V1647.82C202.723 1651.79 200.547 1654.7 197.731 1656.56C194.915 1658.42 191.843 1659.34 188.515 1659.34C184.163 1659.34 180.835 1658.13 178.531 1655.7C177.379 1654.42 176.547 1652.78 176.035 1650.8C175.587 1648.82 175.363 1646.26 175.363 1643.12V1619.02C175.363 1616.08 174.819 1613.94 173.731 1612.59C172.643 1611.25 170.755 1610.58 168.067 1610.58V1608.56C170.051 1608.75 172.035 1608.85 174.019 1608.85C178.051 1608.85 181.379 1608.4 184.003 1607.5V1645.23C184.003 1647.66 184.131 1649.65 184.387 1651.18C184.707 1652.66 185.379 1653.87 186.403 1654.83C187.491 1655.79 189.123 1656.27 191.299 1656.27C193.731 1656.27 195.939 1655.5 197.923 1653.97C199.907 1652.43 201.443 1650.35 202.531 1647.73C203.683 1645.04 204.259 1642.1 204.259 1638.9V1619.02C204.259 1616.08 203.715 1613.94 202.627 1612.59C201.539 1611.25 199.651 1610.58 196.963 1610.58V1608.56C198.947 1608.75 200.931 1608.85 202.915 1608.85C206.947 1608.85 210.275 1608.4 212.899 1607.5V1647.63Z" fill="black"/>
<path d="M240.361 1649.07C240.361 1651.7 240.905 1653.52 241.993 1654.54C243.081 1655.5 244.969 1655.98 247.657 1655.98V1658C241.769 1657.74 237.897 1657.62 236.041 1657.62C234.185 1657.62 230.313 1657.74 224.425 1658V1655.98C227.113 1655.98 229.001 1655.5 230.089 1654.54C231.177 1653.52 231.721 1651.7 231.721 1649.07V1594.26C231.721 1591.31 231.177 1589.17 230.089 1587.82C229.001 1586.48 227.113 1585.81 224.425 1585.81V1583.79C226.409 1583.98 228.393 1584.08 230.377 1584.08C234.409 1584.08 237.737 1583.63 240.361 1582.74V1649.07Z" fill="black"/>
<path d="M265.429 1658.67C261.397 1658.67 258.389 1657.68 256.405 1655.7C254.485 1653.65 253.525 1650.83 253.525 1647.25C253.525 1644.37 254.293 1642 255.829 1640.14C257.429 1638.29 259.285 1636.82 261.397 1635.73C263.573 1634.64 266.421 1633.49 269.941 1632.27C273.525 1631.06 276.181 1629.94 277.909 1628.91C279.637 1627.89 280.501 1626.51 280.501 1624.78V1618.83C280.501 1615.12 279.701 1612.59 278.101 1611.25C276.565 1609.84 274.389 1609.14 271.573 1609.14C267.093 1609.14 263.925 1610.29 262.069 1612.59C263.349 1612.91 264.405 1613.58 265.237 1614.61C266.133 1615.63 266.581 1616.91 266.581 1618.45C266.581 1620.05 266.069 1621.33 265.045 1622.29C264.021 1623.18 262.709 1623.63 261.109 1623.63C259.317 1623.63 257.973 1623.09 257.077 1622C256.181 1620.85 255.733 1619.47 255.733 1617.87C255.733 1616.34 256.085 1615.06 256.789 1614.03C257.557 1613.01 258.677 1611.98 260.149 1610.96C261.685 1609.87 263.637 1608.98 266.005 1608.27C268.373 1607.57 270.965 1607.22 273.781 1607.22C278.773 1607.22 282.549 1608.4 285.109 1610.77C286.709 1612.24 287.765 1614.03 288.277 1616.14C288.853 1618.19 289.141 1620.91 289.141 1624.3V1650.99C289.141 1652.59 289.365 1653.74 289.813 1654.45C290.261 1655.15 291.029 1655.5 292.117 1655.5C292.885 1655.5 293.589 1655.34 294.229 1655.02C294.933 1654.64 295.669 1654.13 296.437 1653.49L297.493 1655.12C295.829 1656.4 294.389 1657.33 293.173 1657.9C292.021 1658.42 290.549 1658.67 288.757 1658.67C285.685 1658.67 283.541 1657.9 282.325 1656.37C281.109 1654.83 280.501 1652.75 280.501 1650.13C278.581 1653.33 276.373 1655.57 273.877 1656.85C271.381 1658.06 268.565 1658.67 265.429 1658.67ZM269.653 1654.83C273.877 1654.83 277.493 1652.4 280.501 1647.54V1628.72C279.925 1629.62 279.125 1630.35 278.101 1630.93C277.077 1631.5 275.509 1632.27 273.397 1633.23C270.965 1634.26 268.981 1635.25 267.445 1636.21C265.973 1637.1 264.693 1638.35 263.605 1639.95C262.517 1641.55 261.973 1643.6 261.973 1646.1C261.973 1648.98 262.677 1651.15 264.085 1652.62C265.493 1654.1 267.349 1654.83 269.653 1654.83Z" fill="black"/>
<path d="M330.234 1607.22C332.794 1607.22 334.874 1607.95 336.474 1609.42C338.138 1610.9 338.97 1612.69 338.97 1614.8C338.97 1616.46 338.458 1617.9 337.434 1619.12C336.474 1620.27 335.162 1620.85 333.498 1620.85C332.09 1620.85 330.874 1620.4 329.85 1619.5C328.89 1618.61 328.41 1617.39 328.41 1615.86C328.41 1613.74 329.498 1612.02 331.674 1610.67C331.226 1610.03 330.554 1609.71 329.658 1609.71C327.162 1609.71 324.89 1610.7 322.842 1612.69C320.794 1614.61 319.194 1616.98 318.042 1619.79C316.89 1622.61 316.314 1625.26 316.314 1627.76V1648.11C316.314 1651.06 317.146 1653.1 318.81 1654.26C320.538 1655.41 323.098 1655.98 326.49 1655.98V1658L324.186 1657.9C317.658 1657.71 313.498 1657.62 311.706 1657.62C310.042 1657.62 306.266 1657.74 300.378 1658V1655.98C303.066 1655.98 304.954 1655.5 306.042 1654.54C307.13 1653.52 307.674 1651.7 307.674 1649.07V1619.02C307.674 1616.08 307.13 1613.94 306.042 1612.59C304.954 1611.25 303.066 1610.58 300.378 1610.58V1608.56C302.426 1608.75 304.41 1608.85 306.33 1608.85C310.362 1608.85 313.69 1608.4 316.314 1607.5V1619.5C317.466 1616.3 319.29 1613.46 321.786 1610.96C324.346 1608.46 327.162 1607.22 330.234 1607.22Z" fill="black"/>
<path d="M43.6321 911.288C50.6081 911.608 55.9521 913.144 59.6641 915.896C63.3761 918.648 65.2321 922.104 65.2321 926.264C65.2321 930.68 63.8881 934.456 61.2001 937.592C58.5121 940.664 54.7681 943 49.9681 944.6C45.2321 946.2 39.7921 947 33.6481 947L28.0801 946.904C24.1121 946.776 20.3681 946.712 16.8481 946.712C10.3841 946.712 5.42409 946.808 1.96809 947L2.35209 945.08C4.65609 944.952 6.38409 944.696 7.53609 944.312C8.68809 943.928 9.58409 943.192 10.2241 942.104C10.9281 941.016 11.6001 939.256 12.2401 936.824L24.9121 889.208C25.4241 887.16 25.6801 885.624 25.6801 884.6C25.6801 883.384 25.2001 882.488 24.2401 881.912C23.3441 881.336 21.6801 881.016 19.2481 880.952L19.7281 879.032C23.1201 879.224 27.9841 879.32 34.3201 879.32L42.4801 879.224C43.8241 879.16 45.7761 879.128 48.3361 879.128C55.5041 879.128 60.8161 880.248 64.2721 882.488C67.7281 884.664 69.4561 887.768 69.4561 891.8C69.4561 895.128 68.3681 898.2 66.1921 901.016C64.0801 903.768 61.0721 906.04 57.1681 907.832C53.2641 909.624 48.7521 910.776 43.6321 911.288ZM46.9921 880.952C45.0721 880.952 43.6641 881.4 42.7681 882.296C41.9361 883.192 41.1681 885.016 40.4641 887.768L34.3201 910.904H37.6801C41.1361 910.904 44.1121 909.944 46.6081 908.024C49.1681 906.104 51.0881 903.576 52.3681 900.44C53.7121 897.24 54.3841 893.848 54.3841 890.264C54.3841 887.256 53.8081 884.952 52.6561 883.352C51.5681 881.752 49.6801 880.952 46.9921 880.952ZM31.3441 944.792C35.1201 944.792 38.3521 943.896 41.0401 942.104C43.7281 940.312 45.7441 937.88 47.0881 934.808C48.4961 931.736 49.2001 928.312 49.2001 924.536C49.2001 920.888 48.3041 917.976 46.5121 915.8C44.7841 913.624 42.0001 912.536 38.1601 912.536H33.9361L27.5041 936.824C26.9921 939 26.7361 940.44 26.7361 941.144C26.7361 942.36 27.0881 943.288 27.7921 943.928C28.4961 944.504 29.6801 944.792 31.3441 944.792Z" fill="black"/>
<path d="M72.3083 932.504C72.3083 927.256 73.4923 921.784 75.8603 916.088C78.2923 910.392 81.8443 905.624 86.5163 901.784C91.2523 897.944 96.8843 896.024 103.412 896.024C108.404 896.024 112.244 897.4 114.932 900.152C117.62 902.84 118.964 906.744 118.964 911.864C118.964 917.112 117.748 922.584 115.316 928.28C112.948 933.976 109.396 938.744 104.66 942.584C99.9883 946.424 94.3883 948.344 87.8603 948.344C82.8683 948.344 79.0283 947 76.3403 944.312C73.6523 941.56 72.3083 937.624 72.3083 932.504ZM102.932 897.944C100.564 897.944 97.9723 900.216 95.1563 904.76C92.3403 909.304 89.9723 914.872 88.0523 921.464C86.1323 928.056 85.1723 934.2 85.1723 939.896C85.1723 942.2 85.4283 943.864 85.9403 944.888C86.4523 945.912 87.2843 946.424 88.4363 946.424C90.8043 946.424 93.3643 944.216 96.1163 939.8C98.9323 935.384 101.3 929.912 103.22 923.384C105.14 916.792 106.1 910.552 106.1 904.664C106.1 902.168 105.844 900.44 105.332 899.48C104.82 898.456 104.02 897.944 102.932 897.944Z" fill="black"/>
<path d="M135.601 938.84C135.345 939.672 135.217 940.472 135.217 941.24C135.217 942.84 135.889 943.64 137.233 943.64C139.217 943.64 141.137 941.112 142.993 936.056L144.721 931.448H146.545L144.145 938.456C142.929 942.04 141.169 944.6 138.865 946.136C136.561 947.608 134.065 948.344 131.377 948.344C128.497 948.344 126.321 947.608 124.849 946.136C123.377 944.6 122.641 942.488 122.641 939.8C122.641 937.816 123.025 935.576 123.793 933.08L138.865 882.968C139.185 881.816 139.345 880.92 139.345 880.28C139.345 879 138.833 878.072 137.809 877.496C136.849 876.92 135.185 876.632 132.817 876.632L133.489 874.616C137.905 874.552 141.873 874.2 145.393 873.56C148.913 872.92 152.369 871.96 155.761 870.68L135.601 938.84Z" fill="black"/>
<path d="M200.286 931.448H202.11L199.806 938.456C198.654 942.104 196.926 944.664 194.622 946.136C192.382 947.608 189.886 948.344 187.134 948.344C183.166 948.344 180.638 946.872 179.55 943.928C179.038 942.776 178.782 941.432 178.782 939.896C178.782 938.04 179.166 935.768 179.934 933.08L180.03 932.696C177.598 938.136 175.006 942.104 172.254 944.6C169.566 947.096 166.334 948.344 162.558 948.344C159.166 948.344 156.414 947.224 154.302 944.984C152.19 942.744 151.134 939.384 151.134 934.904C151.134 929.72 152.478 924.088 155.166 918.008C157.854 911.864 161.63 906.68 166.494 902.456C171.358 898.168 176.894 896.024 183.102 896.024C186.11 896.024 188.062 897.112 188.958 899.288L193.278 882.968C193.598 881.816 193.758 880.92 193.758 880.28C193.758 879 193.246 878.072 192.222 877.496C191.262 876.92 189.598 876.632 187.23 876.632L187.806 874.616C192.222 874.552 196.222 874.2 199.806 873.56C203.454 872.92 206.942 871.96 210.27 870.68L191.454 938.84C191.134 939.736 190.974 940.6 190.974 941.432C190.974 942.904 191.582 943.64 192.798 943.64C193.758 943.64 194.718 943.096 195.678 942.008C196.638 940.856 197.63 938.872 198.654 936.056L200.286 931.448ZM188.286 901.592C187.582 899.352 186.302 898.232 184.446 898.232C181.694 898.232 178.814 900.216 175.806 904.184C172.862 908.088 170.366 913.048 168.318 919.064C166.334 925.08 165.342 931.032 165.342 936.92C165.342 939.16 165.566 940.824 166.014 941.912C166.526 943 167.326 943.544 168.414 943.544C169.694 943.544 171.198 942.616 172.926 940.76C174.654 938.84 176.446 936.088 178.302 932.504C180.222 928.92 181.95 924.664 183.486 919.736L188.286 901.592Z" fill="black"/>
<path d="M252.317 936.824C251.741 939.256 251.453 940.824 251.453 941.528C251.453 942.872 251.901 943.768 252.797 944.216C253.757 944.664 255.485 944.952 257.981 945.08L257.597 947C253.885 946.808 248.669 946.712 241.949 946.712C235.229 946.712 230.205 946.808 226.877 947L227.357 945.08C229.597 944.952 231.261 944.696 232.349 944.312C233.501 943.928 234.397 943.192 235.037 942.104C235.741 940.952 236.413 939.192 237.053 936.824L249.725 889.208C250.237 887.032 250.493 885.496 250.493 884.6C250.493 883.192 250.013 882.264 249.053 881.816C248.157 881.368 246.493 881.08 244.061 880.952L244.541 879.032C247.677 879.224 252.701 879.32 259.613 879.32C265.949 879.32 271.197 879.224 275.357 879.032L274.877 880.952C272.509 881.08 270.749 881.336 269.597 881.72C268.509 882.104 267.613 882.84 266.909 883.928C266.269 885.016 265.629 886.776 264.989 889.208L252.317 936.824Z" fill="black"/>
<path d="M283.588 938.84C283.396 939.48 283.3 940.12 283.3 940.76C283.3 941.72 283.556 942.456 284.068 942.968C284.58 943.416 285.284 943.64 286.18 943.64C287.588 943.64 288.932 942.968 290.212 941.624C291.556 940.216 292.74 938.136 293.764 935.384L295.204 931.448H297.028L295.108 937.016C292.612 944.568 287.812 948.344 280.708 948.344C277.444 948.344 274.98 947.512 273.316 945.848C271.716 944.12 270.916 941.784 270.916 938.84C270.916 936.984 271.204 935.064 271.78 933.08L281.476 899.288H272.836L273.316 897.368H282.052L286.18 883.064C291.62 883 296.26 882.552 300.1 881.72L295.588 897.368H306.436L306.148 899.288H295.012L283.588 938.84Z" fill="black"/>
<path d="M349.208 931.448H351.032L348.632 938.456C347.352 942.04 345.56 944.6 343.256 946.136C341.016 947.608 338.584 948.344 335.96 948.344C332.632 948.344 330.264 947.352 328.856 945.368C327.96 944.216 327.512 942.616 327.512 940.568C327.512 938.904 327.8 937.016 328.376 934.904C326.2 939.64 323.768 943.064 321.08 945.176C318.456 947.288 315.544 948.344 312.344 948.344C308.824 948.344 306.136 947.32 304.28 945.272C302.488 943.16 301.592 940.248 301.592 936.536C301.592 930.84 303.096 924.824 306.104 918.488C309.176 912.088 313.048 906.744 317.72 902.456C322.392 898.168 326.968 896.024 331.448 896.024C333.176 896.024 334.552 896.536 335.576 897.56C336.664 898.584 337.304 900.12 337.496 902.168L338.84 897.464C343.96 897.4 348.6 896.92 352.76 896.024L340.184 938.84C339.864 939.928 339.704 940.824 339.704 941.528C339.704 942.936 340.312 943.64 341.528 943.64C343.768 943.64 345.752 941.112 347.48 936.056L349.208 931.448ZM336.44 905.912C336.504 905.592 336.536 905.112 336.536 904.472C336.536 902.872 336.248 901.656 335.672 900.824C335.16 899.992 334.36 899.576 333.272 899.576C331.096 899.576 328.6 901.528 325.784 905.432C323.032 909.336 320.664 914.232 318.68 920.12C316.76 926.008 315.8 931.704 315.8 937.208C315.8 939.32 315.992 940.856 316.376 941.816C316.824 942.712 317.528 943.16 318.488 943.16C319.896 943.16 321.432 942.2 323.096 940.28C324.824 938.296 326.52 935.48 328.184 931.832C329.912 928.12 331.416 923.736 332.696 918.68L332.216 920.984L336.44 905.912Z" fill="black"/>
<path d="M368.851 938.84C368.595 939.672 368.467 940.472 368.467 941.24C368.467 942.84 369.139 943.64 370.483 943.64C372.467 943.64 374.387 941.112 376.243 936.056L377.971 931.448H379.795L377.395 938.456C376.179 942.04 374.419 944.6 372.115 946.136C369.811 947.608 367.315 948.344 364.627 948.344C361.747 948.344 359.571 947.608 358.099 946.136C356.627 944.6 355.891 942.488 355.891 939.8C355.891 937.816 356.275 935.576 357.043 933.08L372.115 882.968C372.435 881.816 372.595 880.92 372.595 880.28C372.595 879 372.083 878.072 371.059 877.496C370.099 876.92 368.435 876.632 366.067 876.632L366.739 874.616C371.155 874.552 375.123 874.2 378.643 873.56C382.163 872.92 385.619 871.96 389.011 870.68L368.851 938.84Z" fill="black"/>
<path d="M400.992 881.336C401.056 878.712 402.016 876.632 403.872 875.096C405.728 873.56 408.032 872.792 410.784 872.792C413.024 872.792 414.752 873.336 415.968 874.424C417.248 875.448 417.888 876.888 417.888 878.744C417.888 881.304 416.928 883.416 415.008 885.08C413.088 886.744 410.72 887.576 407.904 887.576C405.6 887.576 403.84 887.032 402.624 885.944C401.408 884.792 400.864 883.256 400.992 881.336ZM397.344 905.528C397.792 904.056 398.016 903.096 398.016 902.648C398.016 901.368 397.44 900.728 396.288 900.728C395.136 900.728 394.08 901.336 393.12 902.552C392.16 903.704 391.168 905.624 390.144 908.312L388.224 913.208H386.4L389.088 905.912C391.456 899.32 395.904 896.024 402.432 896.024C405.376 896.024 407.52 896.76 408.864 898.232C410.208 899.64 410.88 901.496 410.88 903.8C410.88 905.656 410.528 907.544 409.824 909.464L399.744 938.84C399.36 939.992 399.168 940.92 399.168 941.624C399.168 942.968 399.808 943.64 401.088 943.64C402.048 943.64 403.008 943.096 403.968 942.008C404.992 940.92 406.048 938.936 407.136 936.056L408.864 931.448H410.688L408.192 938.456C405.952 945.048 401.632 948.344 395.232 948.344C389.408 948.344 386.496 945.688 386.496 940.376C386.496 938.264 386.976 935.832 387.936 933.08L397.344 905.528Z" fill="black"/>
<path d="M449.306 897.944C446.17 897.944 443.098 899.672 440.09 903.128C437.146 906.52 434.746 911 432.89 916.568C431.034 922.072 430.106 927.736 430.106 933.56C430.106 939.96 432.538 943.16 437.402 943.16C442.01 943.16 446.234 940.344 450.074 934.712L451.994 935.48C449.69 939.192 446.746 942.264 443.162 944.696C439.642 947.128 435.61 948.344 431.066 948.344C426.394 948.344 422.65 947.096 419.834 944.6C417.082 942.104 415.706 938.424 415.706 933.56C415.706 928.056 417.082 922.392 419.834 916.568C422.586 910.68 426.458 905.784 431.45 901.88C436.442 897.976 442.106 896.024 448.442 896.024C451.962 896.024 454.778 896.92 456.89 898.712C459.066 900.44 460.154 902.616 460.154 905.24C460.154 906.968 459.738 908.664 458.906 910.328C458.074 911.992 456.922 913.336 455.45 914.36C453.978 915.384 452.378 915.896 450.65 915.896C449.05 915.896 447.738 915.384 446.714 914.36C445.69 913.336 445.178 911.992 445.178 910.328C445.178 907.832 446.042 905.624 447.77 903.704C449.498 901.72 451.546 900.44 453.914 899.864C452.826 898.584 451.29 897.944 449.306 897.944Z" fill="black"/>
<path d="M21.9361 1864.82C21.3601 1867.26 21.0721 1868.82 21.0721 1869.53C21.0721 1870.87 21.5201 1871.77 22.4161 1872.22C23.3761 1872.66 25.1041 1872.95 27.6001 1873.08L27.2161 1875C24.2721 1874.81 20.2081 1874.71 15.0241 1874.71C9.64809 1874.71 5.58409 1874.81 2.83209 1875L3.31209 1873.08C5.55209 1872.95 7.21609 1872.7 8.30409 1872.31C9.45609 1871.93 10.3521 1871.19 10.9921 1870.1C11.6961 1868.95 12.3681 1867.19 13.0081 1864.82L25.6801 1817.21C26.1921 1815.03 26.4481 1813.5 26.4481 1812.6C26.4481 1811.19 25.9681 1810.26 25.0081 1809.82C24.1121 1809.37 22.4481 1809.08 20.0161 1808.95L20.4961 1807.03C23.1201 1807.22 27.1841 1807.32 32.6881 1807.32C37.8081 1807.32 41.9041 1807.22 44.9761 1807.03L44.4961 1808.95C42.1281 1809.08 40.3681 1809.34 39.2161 1809.72C38.1281 1810.1 37.2321 1810.84 36.5281 1811.93C35.8881 1813.02 35.2481 1814.78 34.6081 1817.21L21.9361 1864.82Z" fill="black"/>
<path d="M49.4911 1866.84C49.2991 1867.61 49.2031 1868.31 49.2031 1868.95C49.2031 1870.23 49.5871 1871.19 50.3551 1871.83C51.1231 1872.47 52.1151 1872.79 53.3311 1872.79C54.9311 1872.79 56.4031 1872.12 57.7471 1870.78C59.1551 1869.37 60.5311 1866.84 61.8751 1863.19L63.2191 1859.45H65.0431L63.0271 1865.5C61.6831 1869.46 59.9231 1872.28 57.7471 1873.94C55.6351 1875.54 53.0111 1876.34 49.8751 1876.34C46.9951 1876.34 44.8511 1875.64 43.4431 1874.23C42.0351 1872.82 41.3311 1870.87 41.3311 1868.38C41.3311 1866.71 41.6191 1864.89 42.1951 1862.9L52.3711 1827.58H43.7311L44.2111 1825.66H52.8511L57.0751 1811.06C60.5311 1810.94 63.4111 1810.49 65.7151 1809.72L61.2031 1825.66H73.8751L73.5871 1827.58H60.6271L49.4911 1866.84Z" fill="black"/>
<path d="M113.805 1859.35H115.629L113.229 1866.36C111.949 1869.88 110.317 1872.44 108.333 1874.04C106.349 1875.58 104.301 1876.34 102.189 1876.34C100.973 1876.34 99.9171 1876.12 99.0211 1875.67C98.1251 1875.22 97.4211 1874.62 96.9091 1873.85C96.3331 1872.89 96.0451 1871.77 96.0451 1870.49C96.0451 1869.14 96.2691 1867.64 96.7171 1865.98C97.1651 1864.31 97.4531 1863.26 97.5811 1862.81L99.3091 1855.9C96.2371 1863.06 93.1011 1868.28 89.9011 1871.54C86.7651 1874.74 83.4691 1876.34 80.0131 1876.34C77.0691 1876.34 74.8291 1875.29 73.2931 1873.18C71.7571 1871.06 70.9891 1868.25 70.9891 1864.73C70.9891 1859.54 72.3651 1853.75 75.1171 1847.35C77.8691 1840.95 81.4531 1835.51 85.8691 1831.03C90.2851 1826.55 94.7651 1824.31 99.3091 1824.31C101.037 1824.31 102.445 1824.95 103.533 1826.23C104.621 1827.51 105.261 1829.3 105.453 1831.61L106.989 1825.66C110.509 1825.53 113.453 1825.08 115.821 1824.31L103.821 1866.74C103.757 1867 103.629 1867.51 103.437 1868.28C103.245 1868.98 103.149 1869.66 103.149 1870.3C103.149 1871.9 103.853 1872.7 105.261 1872.7C108.077 1872.7 110.541 1869.43 112.653 1862.9L113.805 1859.35ZM82.7971 1873.27C84.5891 1873.27 86.7331 1871.9 89.2291 1869.14C91.7251 1866.39 94.1571 1862.74 96.5251 1858.2C98.9571 1853.59 100.941 1848.7 102.477 1843.51L104.205 1836.7C104.269 1836.18 104.301 1835.48 104.301 1834.58C104.301 1831.96 103.821 1829.91 102.861 1828.44C101.965 1826.9 100.685 1826.14 99.0211 1826.14C96.2691 1826.14 93.3571 1828.28 90.2851 1832.57C87.2131 1836.79 84.6211 1842.04 82.5091 1848.31C80.4611 1854.52 79.4371 1860.38 79.4371 1865.88C79.4371 1868.5 79.7251 1870.39 80.3011 1871.54C80.8771 1872.7 81.7091 1873.27 82.7971 1873.27Z" fill="black"/>
<path d="M130.167 1866.84C129.783 1868.18 129.591 1869.3 129.591 1870.2C129.591 1871.93 130.327 1872.79 131.799 1872.79C133.079 1872.79 134.263 1872.06 135.351 1870.58C136.503 1869.11 137.719 1866.58 138.999 1863L140.247 1859.45H142.071L139.671 1866.46C137.431 1873.05 133.591 1876.34 128.151 1876.34C123.735 1876.34 121.527 1874.26 121.527 1870.1C121.527 1868.5 121.975 1866.1 122.871 1862.9L138.519 1810.97C138.839 1809.82 138.999 1808.92 138.999 1808.28C138.999 1807 138.487 1806.07 137.463 1805.5C136.503 1804.92 134.839 1804.63 132.471 1804.63L133.143 1802.62C136.535 1802.55 139.575 1802.2 142.263 1801.56C145.015 1800.92 147.671 1799.96 150.231 1798.68L130.167 1866.84Z" fill="black"/>
<path d="M165.048 1809.43C165.048 1807.51 165.752 1805.82 167.16 1804.34C168.632 1802.81 170.296 1802.04 172.152 1802.04C173.624 1802.04 174.808 1802.52 175.704 1803.48C176.6 1804.44 177.048 1805.62 177.048 1807.03C177.048 1808.95 176.312 1810.65 174.84 1812.12C173.368 1813.59 171.704 1814.33 169.848 1814.33C168.44 1814.33 167.288 1813.88 166.392 1812.98C165.496 1812.02 165.048 1810.84 165.048 1809.43ZM162.168 1833.82C162.68 1832.28 162.936 1831.1 162.936 1830.26C162.936 1828.66 162.232 1827.86 160.824 1827.86C159.352 1827.86 158.04 1828.63 156.888 1830.17C155.736 1831.7 154.52 1834.2 153.24 1837.66L151.896 1841.21H150.072L152.568 1834.2C153.848 1830.55 155.544 1827.99 157.656 1826.52C159.832 1825.05 162.104 1824.31 164.472 1824.31C168.696 1824.31 170.808 1826.33 170.808 1830.36C170.808 1832.47 170.296 1834.94 169.272 1837.75L159 1866.84C158.488 1868.38 158.232 1869.56 158.232 1870.39C158.232 1871.99 159 1872.79 160.536 1872.79C161.88 1872.79 163.128 1872.06 164.28 1870.58C165.432 1869.11 166.68 1866.58 168.024 1863L169.368 1859.45H171.192L168.696 1866.46C167.416 1869.98 165.72 1872.5 163.608 1874.04C161.56 1875.58 159.32 1876.34 156.888 1876.34C152.408 1876.34 150.168 1874.39 150.168 1870.49C150.168 1868.63 150.744 1866.1 151.896 1862.9L162.168 1833.82Z" fill="black"/>
<path d="M206.977 1826.23C203.777 1826.23 200.577 1827.96 197.377 1831.42C194.241 1834.87 191.649 1839.45 189.601 1845.14C187.617 1850.84 186.625 1856.82 186.625 1863.1C186.625 1866.23 187.201 1868.57 188.353 1870.1C189.569 1871.58 191.233 1872.31 193.345 1872.31C198.593 1872.31 203.393 1869.11 207.745 1862.71L209.665 1863.48C207.617 1867 204.833 1870.04 201.313 1872.6C197.857 1875.1 194.209 1876.34 190.369 1876.34C186.465 1876.34 183.361 1875.16 181.057 1872.79C178.817 1870.36 177.697 1866.84 177.697 1862.23C177.697 1857.05 178.913 1851.48 181.345 1845.53C183.777 1839.58 187.201 1834.55 191.617 1830.46C196.033 1826.36 201.057 1824.31 206.689 1824.31C209.633 1824.31 212.097 1825.05 214.081 1826.52C216.065 1827.99 217.057 1829.98 217.057 1832.47C217.057 1834.46 216.417 1836.25 215.137 1837.85C213.857 1839.38 212.225 1840.15 210.241 1840.15C208.961 1840.15 207.969 1839.8 207.265 1839.1C206.625 1838.39 206.305 1837.5 206.305 1836.41C206.305 1834.62 207.009 1833.08 208.417 1831.8C209.825 1830.46 211.521 1829.59 213.505 1829.21C212.161 1827.22 209.985 1826.23 206.977 1826.23Z" fill="black"/>
</svg>
